<svg id="svg" xmlns="http://www.w3.org/2000/svg" xmlns:xlink="http://www.w3.org/1999/xlink" width="400" height="77.0595690747782" viewBox="0, 0, 400,77.0595690747782"><g id="svgg"><path id="path0" d="M19.500 0.167 C 19.500 0.262,18.998 0.333,18.328 0.333 C 17.440 0.333,17.133 0.394,17.060 0.583 C 16.995 0.753,16.729 0.833,16.232 0.833 C 15.692 0.833,15.500 0.899,15.500 1.083 C 15.500 1.269,15.306 1.333,14.750 1.333 C 14.194 1.333,14.000 1.398,14.000 1.583 C 14.000 1.750,13.833 1.833,13.500 1.833 C 13.167 1.833,13.000 1.917,13.000 2.083 C 13.000 2.250,12.833 2.333,12.500 2.333 C 12.167 2.333,12.000 2.417,12.000 2.583 C 12.000 2.750,11.833 2.833,11.500 2.833 C 11.167 2.833,11.000 2.917,11.000 3.083 C 11.000 3.221,10.887 3.333,10.750 3.333 C 10.612 3.333,10.500 3.446,10.500 3.583 C 10.500 3.750,10.333 3.833,10.000 3.833 C 9.667 3.833,9.500 3.917,9.500 4.083 C 9.500 4.221,9.403 4.333,9.284 4.333 C 9.165 4.333,8.884 4.555,8.659 4.826 C 8.434 5.097,8.156 5.322,8.042 5.326 C 7.927 5.330,7.833 5.446,7.833 5.583 C 7.833 5.721,7.721 5.833,7.583 5.833 C 7.446 5.833,7.333 5.946,7.333 6.083 C 7.333 6.221,7.221 6.333,7.083 6.333 C 6.946 6.333,6.833 6.404,6.833 6.490 C 6.833 6.576,6.608 6.892,6.333 7.194 C 6.058 7.495,5.833 7.874,5.833 8.037 C 5.833 8.200,5.721 8.333,5.583 8.333 C 5.446 8.333,5.333 8.438,5.333 8.566 C 5.333 8.693,5.221 8.841,5.083 8.894 C 4.946 8.946,4.833 9.179,4.833 9.411 C 4.833 9.675,4.740 9.833,4.583 9.833 C 4.409 9.833,4.333 10.009,4.333 10.417 C 4.333 10.824,4.258 11.000,4.083 11.000 C 3.917 11.000,3.833 11.167,3.833 11.500 C 3.833 11.833,3.750 12.000,3.583 12.000 C 3.417 12.000,3.333 12.167,3.333 12.500 C 3.333 12.833,3.250 13.000,3.083 13.000 C 2.889 13.000,2.833 13.222,2.833 14.000 C 2.833 14.778,2.778 15.000,2.583 15.000 C 2.383 15.000,2.333 15.250,2.333 16.250 C 2.333 17.250,2.283 17.500,2.083 17.500 C 1.868 17.500,1.833 18.093,1.833 21.833 C 1.833 25.574,1.868 26.167,2.083 26.167 C 2.283 26.167,2.333 26.417,2.333 27.417 C 2.333 28.417,2.383 28.667,2.583 28.667 C 2.769 28.667,2.833 28.861,2.833 29.417 C 2.833 29.972,2.898 30.167,3.083 30.167 C 3.264 30.167,3.333 30.352,3.333 30.839 C 3.333 31.282,3.418 31.543,3.583 31.606 C 3.721 31.659,3.833 31.884,3.833 32.106 C 3.833 32.329,3.946 32.554,4.083 32.606 C 4.221 32.659,4.333 32.807,4.333 32.934 C 4.333 33.062,4.446 33.167,4.583 33.167 C 4.740 33.167,4.833 33.325,4.833 33.589 C 4.833 33.821,4.946 34.054,5.083 34.106 C 5.221 34.159,5.333 34.307,5.333 34.434 C 5.333 34.562,5.446 34.667,5.583 34.667 C 5.721 34.667,5.833 34.779,5.833 34.917 C 5.833 35.054,5.946 35.167,6.083 35.167 C 6.221 35.167,6.333 35.279,6.333 35.417 C 6.333 35.554,6.446 35.667,6.583 35.667 C 6.721 35.667,6.833 35.779,6.833 35.917 C 6.833 36.054,6.946 36.167,7.083 36.167 C 7.221 36.167,7.333 36.279,7.333 36.417 C 7.333 36.554,7.446 36.667,7.583 36.667 C 7.721 36.667,7.833 36.779,7.833 36.917 C 7.833 37.054,7.946 37.167,8.083 37.167 C 8.221 37.167,8.333 37.279,8.333 37.417 C 8.333 37.554,8.438 37.667,8.566 37.667 C 8.693 37.667,8.841 37.779,8.894 37.917 C 8.950 38.063,9.199 38.167,9.495 38.167 C 9.889 38.167,10.000 38.240,10.000 38.500 C 10.000 38.685,10.111 38.833,10.250 38.833 C 10.387 38.833,10.500 38.946,10.500 39.083 C 10.500 39.250,10.667 39.333,11.000 39.333 C 11.333 39.333,11.500 39.417,11.500 39.583 C 11.500 39.721,11.612 39.833,11.750 39.833 C 11.887 39.833,12.000 39.902,12.000 39.987 C 12.000 40.071,12.225 40.190,12.500 40.250 C 12.775 40.310,13.000 40.423,13.000 40.500 C 13.000 40.577,13.219 40.688,13.486 40.747 C 13.753 40.806,14.014 40.962,14.064 41.094 C 14.115 41.225,14.338 41.333,14.560 41.333 C 14.783 41.333,15.008 41.446,15.060 41.583 C 15.124 41.748,15.385 41.833,15.828 41.833 C 16.314 41.833,16.500 41.902,16.500 42.083 C 16.500 42.248,16.665 42.333,16.982 42.333 C 17.257 42.333,17.506 42.441,17.560 42.583 C 17.623 42.747,17.883 42.833,18.310 42.833 C 18.738 42.833,18.998 42.920,19.060 43.083 C 19.123 43.247,19.383 43.333,19.810 43.333 C 20.238 43.333,20.498 43.420,20.560 43.583 C 20.626 43.755,20.894 43.833,21.411 43.833 C 21.972 43.833,22.167 43.898,22.167 44.083 C 22.167 44.278,22.389 44.333,23.167 44.333 C 23.944 44.333,24.167 44.389,24.167 44.583 C 24.167 44.778,24.389 44.833,25.167 44.833 C 25.944 44.833,26.167 44.889,26.167 45.083 C 26.167 45.269,26.361 45.333,26.917 45.333 C 27.472 45.333,27.667 45.398,27.667 45.583 C 27.667 45.769,27.861 45.833,28.417 45.833 C 28.972 45.833,29.167 45.898,29.167 46.083 C 29.167 46.250,29.333 46.333,29.667 46.333 C 30.000 46.333,30.167 46.417,30.167 46.583 C 30.167 46.748,30.331 46.833,30.649 46.833 C 30.924 46.833,31.172 46.941,31.227 47.083 C 31.283 47.229,31.533 47.333,31.828 47.333 C 32.166 47.333,32.333 47.416,32.333 47.583 C 32.333 47.736,32.489 47.833,32.732 47.833 C 32.952 47.833,33.174 47.946,33.227 48.083 C 33.283 48.229,33.533 48.333,33.828 48.333 C 34.166 48.333,34.333 48.416,34.333 48.583 C 34.333 48.721,34.446 48.833,34.583 48.833 C 34.721 48.833,34.833 48.946,34.833 49.083 C 34.833 49.221,34.946 49.333,35.083 49.333 C 35.221 49.333,35.333 49.446,35.333 49.583 C 35.333 49.721,35.446 49.833,35.583 49.833 C 35.721 49.833,35.833 49.946,35.833 50.083 C 35.833 50.221,35.946 50.333,36.083 50.333 C 36.250 50.333,36.333 50.500,36.333 50.833 C 36.333 51.167,36.417 51.333,36.583 51.333 C 36.751 51.333,36.833 51.501,36.833 51.839 C 36.833 52.134,36.937 52.384,37.083 52.440 C 37.278 52.514,37.333 52.845,37.333 53.940 C 37.333 55.034,37.388 55.365,37.583 55.440 C 37.721 55.492,37.833 55.640,37.833 55.768 C 37.833 55.896,37.721 56.000,37.583 56.000 C 37.383 56.000,37.333 56.250,37.333 57.250 C 37.333 58.250,37.283 58.500,37.083 58.500 C 36.919 58.500,36.833 58.665,36.833 58.982 C 36.833 59.257,36.726 59.506,36.583 59.560 C 36.446 59.613,36.333 59.846,36.333 60.078 C 36.333 60.342,36.240 60.500,36.083 60.500 C 35.946 60.500,35.833 60.612,35.833 60.750 C 35.833 60.887,35.721 61.000,35.583 61.000 C 35.446 61.000,35.333 61.112,35.333 61.250 C 35.333 61.387,35.221 61.500,35.083 61.500 C 34.944 61.500,34.833 61.648,34.833 61.833 C 34.833 62.090,34.722 62.167,34.351 62.167 C 34.076 62.167,33.828 62.274,33.773 62.417 C 33.720 62.554,33.495 62.667,33.273 62.667 C 33.051 62.667,32.826 62.779,32.773 62.917 C 32.710 63.081,32.450 63.167,32.014 63.167 C 31.609 63.167,31.297 63.260,31.216 63.407 C 30.988 63.814,23.500 63.824,23.500 63.417 C 23.500 63.222,23.278 63.167,22.500 63.167 C 21.722 63.167,21.500 63.111,21.500 62.917 C 21.500 62.750,21.333 62.667,21.000 62.667 C 20.667 62.667,20.500 62.583,20.500 62.417 C 20.500 62.279,20.387 62.167,20.250 62.167 C 20.112 62.167,20.000 62.062,20.000 61.935 C 20.000 61.807,19.816 61.657,19.591 61.600 C 19.176 61.496,17.000 59.445,17.000 59.157 C 17.000 59.071,16.887 59.000,16.750 59.000 C 16.583 59.000,16.500 58.833,16.500 58.500 C 16.500 58.167,16.417 58.000,16.250 58.000 C 16.094 58.000,16.000 57.842,16.000 57.578 C 16.000 57.346,15.887 57.113,15.750 57.060 C 15.607 57.006,15.500 56.757,15.500 56.482 C 15.500 56.165,15.415 56.000,15.250 56.000 C 15.058 56.000,15.000 55.786,15.000 55.078 C 15.000 54.412,14.931 54.130,14.750 54.060 C 14.612 54.008,14.500 53.860,14.500 53.732 C 14.500 53.585,14.316 53.500,14.000 53.500 C 13.667 53.500,13.500 53.417,13.500 53.250 C 13.500 53.032,12.713 53.000,7.417 53.000 C 2.120 53.000,1.333 53.032,1.333 53.250 C 1.333 53.417,1.167 53.500,0.833 53.500 C 0.389 53.500,0.333 53.556,0.333 54.000 C 0.333 54.275,0.258 54.500,0.167 54.500 C 0.070 54.500,0.000 55.028,0.000 55.750 C 0.000 56.472,0.070 57.000,0.167 57.000 C 0.259 57.000,0.333 57.444,0.333 58.000 C 0.333 58.778,0.389 59.000,0.583 59.000 C 0.778 59.000,0.833 59.222,0.833 60.000 C 0.833 60.778,0.889 61.000,1.083 61.000 C 1.250 61.000,1.333 61.167,1.333 61.500 C 1.333 61.833,1.417 62.000,1.583 62.000 C 1.769 62.000,1.833 62.194,1.833 62.750 C 1.833 63.306,1.898 63.500,2.083 63.500 C 2.250 63.500,2.333 63.667,2.333 64.000 C 2.333 64.333,2.417 64.500,2.583 64.500 C 2.750 64.500,2.833 64.667,2.833 65.000 C 2.833 65.333,2.917 65.500,3.083 65.500 C 3.221 65.500,3.333 65.615,3.333 65.755 C 3.333 65.896,3.446 66.054,3.583 66.106 C 3.721 66.159,3.833 66.384,3.833 66.606 C 3.833 66.829,3.946 67.054,4.083 67.106 C 4.221 67.159,4.333 67.307,4.333 67.434 C 4.333 67.562,4.446 67.667,4.583 67.667 C 4.721 67.667,4.833 67.779,4.833 67.917 C 4.833 68.054,4.946 68.167,5.083 68.167 C 5.226 68.167,5.333 68.317,5.333 68.517 C 5.333 68.986,7.514 71.167,7.983 71.167 C 8.183 71.167,8.333 71.274,8.333 71.417 C 8.333 71.554,8.446 71.667,8.583 71.667 C 8.721 71.667,8.833 71.779,8.833 71.917 C 8.833 72.054,8.938 72.167,9.066 72.167 C 9.193 72.167,9.341 72.279,9.394 72.417 C 9.450 72.563,9.699 72.667,9.995 72.667 C 10.333 72.667,10.500 72.749,10.500 72.917 C 10.500 73.054,10.612 73.167,10.750 73.167 C 10.887 73.167,11.000 73.279,11.000 73.417 C 11.000 73.583,11.167 73.667,11.500 73.667 C 11.833 73.667,12.000 73.750,12.000 73.917 C 12.000 74.083,12.167 74.167,12.500 74.167 C 12.833 74.167,13.000 74.250,13.000 74.417 C 13.000 74.602,13.194 74.667,13.750 74.667 C 14.306 74.667,14.500 74.731,14.500 74.917 C 14.500 75.102,14.694 75.167,15.250 75.167 C 15.806 75.167,16.000 75.231,16.000 75.417 C 16.000 75.602,16.194 75.667,16.750 75.667 C 17.306 75.667,17.500 75.731,17.500 75.917 C 17.500 76.117,17.750 76.167,18.750 76.167 C 19.750 76.167,20.000 76.217,20.000 76.417 C 20.000 76.635,20.843 76.667,26.583 76.667 C 32.324 76.667,33.167 76.635,33.167 76.417 C 33.167 76.217,33.417 76.167,34.417 76.167 C 35.417 76.167,35.667 76.117,35.667 75.917 C 35.667 75.728,35.870 75.667,36.500 75.667 C 37.130 75.667,37.333 75.606,37.333 75.417 C 37.333 75.231,37.528 75.167,38.083 75.167 C 38.639 75.167,38.833 75.102,38.833 74.917 C 38.833 74.736,39.019 74.667,39.505 74.667 C 39.949 74.667,40.210 74.582,40.273 74.417 C 40.328 74.274,40.576 74.167,40.851 74.167 C 41.169 74.167,41.333 74.081,41.333 73.917 C 41.333 73.750,41.500 73.667,41.833 73.667 C 42.167 73.667,42.333 73.583,42.333 73.417 C 42.333 73.279,42.446 73.167,42.583 73.167 C 42.721 73.167,42.833 73.054,42.833 72.917 C 42.833 72.750,43.000 72.667,43.333 72.667 C 43.667 72.667,43.833 72.583,43.833 72.417 C 43.833 72.279,43.946 72.167,44.083 72.167 C 44.221 72.167,44.333 72.054,44.333 71.917 C 44.333 71.750,44.500 71.667,44.833 71.667 C 45.167 71.667,45.333 71.583,45.333 71.417 C 45.333 71.279,45.446 71.167,45.583 71.167 C 45.721 71.167,45.833 71.054,45.833 70.917 C 45.833 70.779,45.946 70.667,46.083 70.667 C 46.221 70.667,46.333 70.554,46.333 70.417 C 46.333 70.279,46.446 70.167,46.583 70.167 C 46.721 70.167,46.833 70.054,46.833 69.917 C 46.833 69.779,46.946 69.667,47.083 69.667 C 47.221 69.667,47.333 69.554,47.333 69.417 C 47.333 69.279,47.446 69.167,47.583 69.167 C 47.721 69.167,47.833 69.062,47.833 68.934 C 47.833 68.807,47.946 68.659,48.083 68.606 C 48.221 68.554,48.333 68.321,48.333 68.089 C 48.333 67.857,48.425 67.667,48.536 67.667 C 48.822 67.667,49.500 66.840,49.500 66.492 C 49.500 66.333,49.612 66.159,49.750 66.106 C 49.887 66.054,50.000 65.829,50.000 65.606 C 50.000 65.384,50.112 65.159,50.250 65.106 C 50.396 65.050,50.500 64.801,50.500 64.505 C 50.500 64.167,50.583 64.000,50.750 64.000 C 50.917 64.000,51.000 63.833,51.000 63.500 C 51.000 63.167,51.083 63.000,51.250 63.000 C 51.434 63.000,51.500 62.808,51.500 62.268 C 51.500 61.771,51.580 61.505,51.750 61.440 C 51.939 61.367,52.000 61.060,52.000 60.172 C 52.000 59.241,52.051 59.000,52.250 59.000 C 52.467 59.000,52.500 58.259,52.500 53.328 C 52.500 48.440,52.465 47.643,52.250 47.560 C 52.072 47.492,52.000 47.213,52.000 46.586 C 52.000 46.008,51.914 45.636,51.750 45.500 C 51.606 45.380,51.500 45.017,51.500 44.641 C 51.500 44.216,51.413 43.956,51.250 43.894 C 51.112 43.841,51.000 43.616,51.000 43.394 C 51.000 43.171,50.892 42.948,50.760 42.898 C 50.628 42.847,50.472 42.587,50.414 42.319 C 50.355 42.052,50.238 41.833,50.153 41.833 C 50.069 41.833,50.000 41.721,50.000 41.583 C 50.000 41.446,49.887 41.333,49.750 41.333 C 49.594 41.333,49.500 41.175,49.500 40.911 C 49.500 40.679,49.387 40.446,49.250 40.394 C 49.112 40.341,49.000 40.193,49.000 40.066 C 49.000 39.938,48.850 39.833,48.667 39.833 C 48.481 39.833,48.333 39.722,48.333 39.583 C 48.333 39.446,48.221 39.333,48.083 39.333 C 47.946 39.333,47.833 39.221,47.833 39.083 C 47.833 38.946,47.721 38.833,47.583 38.833 C 47.446 38.833,47.333 38.721,47.333 38.583 C 47.333 38.446,47.221 38.333,47.083 38.333 C 46.946 38.333,46.833 38.221,46.833 38.083 C 46.833 37.946,46.721 37.833,46.583 37.833 C 46.446 37.833,46.333 37.721,46.333 37.583 C 46.333 37.446,46.221 37.333,46.083 37.333 C 45.946 37.333,45.833 37.221,45.833 37.083 C 45.833 36.946,45.721 36.833,45.583 36.833 C 45.446 36.833,45.333 36.721,45.333 36.583 C 45.333 36.446,45.230 36.333,45.103 36.333 C 44.976 36.333,44.833 36.183,44.785 36.000 C 44.726 35.775,44.558 35.667,44.266 35.667 C 43.992 35.667,43.833 35.575,43.833 35.417 C 43.833 35.279,43.729 35.167,43.601 35.167 C 43.473 35.167,43.326 35.054,43.273 34.917 C 43.220 34.779,42.995 34.667,42.773 34.667 C 42.551 34.667,42.326 34.554,42.273 34.417 C 42.220 34.279,41.987 34.167,41.755 34.167 C 41.491 34.167,41.333 34.073,41.333 33.917 C 41.333 33.779,41.218 33.667,41.078 33.667 C 40.938 33.667,40.780 33.554,40.727 33.417 C 40.674 33.279,40.461 33.167,40.253 33.167 C 40.044 33.167,39.781 33.054,39.667 32.917 C 39.553 32.779,39.214 32.667,38.914 32.667 C 38.583 32.667,38.331 32.568,38.273 32.417 C 38.220 32.279,37.995 32.167,37.773 32.167 C 37.551 32.167,37.326 32.054,37.273 31.917 C 37.217 31.771,36.967 31.667,36.672 31.667 C 36.334 31.667,36.167 31.584,36.167 31.417 C 36.167 31.232,35.974 31.167,35.434 31.167 C 34.937 31.167,34.672 31.086,34.606 30.917 C 34.543 30.752,34.282 30.667,33.839 30.667 C 33.352 30.667,33.167 30.598,33.167 30.417 C 33.167 30.222,32.944 30.167,32.167 30.167 C 31.389 30.167,31.167 30.111,31.167 29.917 C 31.167 29.731,30.972 29.667,30.417 29.667 C 29.861 29.667,29.667 29.602,29.667 29.417 C 29.667 29.222,29.444 29.167,28.667 29.167 C 27.889 29.167,27.667 29.111,27.667 28.917 C 27.667 28.732,27.474 28.667,26.934 28.667 C 26.437 28.667,26.172 28.586,26.106 28.417 C 26.044 28.253,25.784 28.167,25.356 28.167 C 24.929 28.167,24.669 28.080,24.606 27.917 C 24.541 27.745,24.273 27.667,23.755 27.667 C 23.195 27.667,23.000 27.602,23.000 27.417 C 23.000 27.250,22.833 27.167,22.500 27.167 C 22.167 27.167,22.000 27.083,22.000 26.917 C 22.000 26.750,21.833 26.667,21.500 26.667 C 21.167 26.667,21.000 26.583,21.000 26.417 C 21.000 26.250,20.833 26.167,20.500 26.167 C 20.167 26.167,20.000 26.083,20.000 25.917 C 20.000 25.779,19.887 25.667,19.750 25.667 C 19.612 25.667,19.500 25.554,19.500 25.417 C 19.500 25.279,19.387 25.167,19.250 25.167 C 19.112 25.167,19.000 25.054,19.000 24.917 C 19.000 24.779,18.887 24.667,18.750 24.667 C 18.612 24.667,18.500 24.554,18.500 24.417 C 18.500 24.279,18.387 24.167,18.250 24.167 C 18.083 24.167,18.000 24.000,18.000 23.667 C 18.000 23.333,17.917 23.167,17.750 23.167 C 17.583 23.167,17.500 22.999,17.500 22.661 C 17.500 22.366,17.396 22.116,17.250 22.060 C 16.881 21.919,16.881 18.081,17.250 17.940 C 17.415 17.876,17.500 17.615,17.500 17.172 C 17.500 16.686,17.569 16.500,17.750 16.500 C 17.917 16.500,18.000 16.333,18.000 16.000 C 18.000 15.667,18.083 15.500,18.250 15.500 C 18.387 15.500,18.500 15.387,18.500 15.250 C 18.500 15.112,18.612 15.000,18.750 15.000 C 18.887 15.000,19.000 14.887,19.000 14.750 C 19.000 14.612,19.112 14.500,19.250 14.500 C 19.387 14.500,19.500 14.387,19.500 14.250 C 19.500 14.094,19.658 14.000,19.922 14.000 C 20.154 14.000,20.387 13.888,20.440 13.750 C 20.492 13.612,20.717 13.500,20.940 13.500 C 21.162 13.500,21.387 13.387,21.440 13.250 C 21.509 13.070,21.791 13.000,22.450 13.000 C 23.224 13.000,23.378 12.949,23.452 12.667 C 23.586 12.152,27.580 12.152,27.715 12.667 C 27.789 12.949,27.942 13.000,28.717 13.000 C 29.376 13.000,29.658 13.070,29.727 13.250 C 29.780 13.388,29.969 13.500,30.148 13.500 C 30.539 13.500,31.530 14.001,31.717 14.292 C 31.790 14.406,31.959 14.500,32.092 14.500 C 32.225 14.500,32.333 14.574,32.333 14.663 C 32.333 14.753,32.521 14.874,32.750 14.932 C 32.979 14.989,33.167 15.117,33.167 15.216 C 33.167 15.514,33.901 16.498,34.125 16.499 C 34.240 16.499,34.333 16.612,34.333 16.750 C 34.333 16.887,34.446 17.000,34.583 17.000 C 34.750 17.000,34.833 17.167,34.833 17.500 C 34.833 17.833,34.917 18.000,35.083 18.000 C 35.269 18.000,35.333 18.194,35.333 18.750 C 35.333 19.306,35.398 19.500,35.583 19.500 C 35.769 19.500,35.833 19.694,35.833 20.250 C 35.833 20.806,35.898 21.000,36.083 21.000 C 36.221 21.000,36.333 21.112,36.333 21.250 C 36.333 21.387,36.446 21.500,36.583 21.500 C 36.721 21.500,36.833 21.613,36.833 21.750 C 36.833 21.968,37.667 22.000,43.333 22.000 C 48.756 22.000,49.833 21.962,49.833 21.769 C 49.833 21.643,49.983 21.500,50.167 21.452 C 50.432 21.382,50.500 21.224,50.500 20.682 C 50.500 20.187,50.568 20.000,50.750 20.000 C 50.917 20.000,51.000 19.833,51.000 19.500 C 51.000 19.167,50.917 19.000,50.750 19.000 C 50.552 19.000,50.500 18.760,50.500 17.842 C 50.500 17.039,50.430 16.642,50.273 16.550 C 50.145 16.475,50.008 16.019,49.960 15.507 C 49.914 15.007,49.791 14.569,49.688 14.535 C 49.585 14.500,49.500 14.253,49.500 13.986 C 49.500 13.665,49.415 13.500,49.250 13.500 C 49.085 13.500,49.000 13.335,49.000 13.014 C 49.000 12.359,48.846 12.000,48.566 12.000 C 48.419 12.000,48.333 11.816,48.333 11.500 C 48.333 11.167,48.250 11.000,48.083 11.000 C 47.919 11.000,47.833 10.835,47.833 10.518 C 47.833 10.243,47.726 9.994,47.583 9.940 C 47.446 9.887,47.333 9.729,47.333 9.589 C 47.333 9.448,47.221 9.333,47.083 9.333 C 46.931 9.333,46.833 9.178,46.833 8.934 C 46.833 8.715,46.721 8.492,46.583 8.440 C 46.446 8.387,46.333 8.229,46.333 8.089 C 46.333 7.948,46.221 7.833,46.083 7.833 C 45.946 7.833,45.833 7.721,45.833 7.583 C 45.833 7.446,45.721 7.333,45.583 7.333 C 45.446 7.333,45.333 7.221,45.333 7.083 C 45.333 6.946,45.221 6.833,45.083 6.833 C 44.946 6.833,44.833 6.721,44.833 6.583 C 44.833 6.446,44.721 6.333,44.583 6.333 C 44.446 6.333,44.333 6.221,44.333 6.083 C 44.333 5.946,44.221 5.833,44.083 5.833 C 43.946 5.833,43.833 5.721,43.833 5.583 C 43.833 5.446,43.721 5.333,43.583 5.333 C 43.446 5.333,43.333 5.221,43.333 5.083 C 43.333 4.946,43.221 4.833,43.083 4.833 C 42.946 4.833,42.833 4.721,42.833 4.583 C 42.833 4.446,42.729 4.333,42.601 4.333 C 42.473 4.333,42.326 4.221,42.273 4.083 C 42.220 3.946,41.987 3.833,41.755 3.833 C 41.491 3.833,41.333 3.740,41.333 3.583 C 41.333 3.446,41.229 3.333,41.101 3.333 C 40.973 3.333,40.826 3.221,40.773 3.083 C 40.720 2.946,40.487 2.833,40.255 2.833 C 39.991 2.833,39.833 2.740,39.833 2.583 C 39.833 2.417,39.667 2.333,39.333 2.333 C 39.000 2.333,38.833 2.250,38.833 2.083 C 38.833 1.909,38.657 1.833,38.250 1.833 C 37.843 1.833,37.667 1.758,37.667 1.583 C 37.667 1.398,37.472 1.333,36.917 1.333 C 36.361 1.333,36.167 1.269,36.167 1.083 C 36.167 0.889,35.944 0.833,35.167 0.833 C 34.389 0.833,34.167 0.778,34.167 0.583 C 34.167 0.389,33.944 0.333,33.167 0.333 C 32.611 0.333,32.167 0.259,32.167 0.167 C 32.167 -0.099,20.718 -0.058,20.610 0.208 C 20.543 0.375,20.524 0.375,20.513 0.208 C 20.498 -0.038,19.500 -0.079,19.500 0.167 M301.500 0.167 C 301.500 0.263,300.972 0.333,300.250 0.333 C 299.250 0.333,299.000 0.383,299.000 0.583 C 299.000 0.772,298.796 0.833,298.167 0.833 C 297.537 0.833,297.333 0.894,297.333 1.083 C 297.333 1.264,297.148 1.333,296.661 1.333 C 296.218 1.333,295.957 1.418,295.894 1.583 C 295.839 1.726,295.590 1.833,295.316 1.833 C 294.998 1.833,294.833 1.919,294.833 2.083 C 294.833 2.250,294.667 2.333,294.333 2.333 C 294.000 2.333,293.833 2.417,293.833 2.583 C 293.833 2.750,293.667 2.833,293.333 2.833 C 293.000 2.833,292.833 2.917,292.833 3.083 C 292.833 3.240,292.675 3.333,292.411 3.333 C 292.179 3.333,291.946 3.446,291.894 3.583 C 291.841 3.721,291.693 3.833,291.566 3.833 C 291.438 3.833,291.333 3.946,291.333 4.083 C 291.333 4.240,291.175 4.333,290.911 4.333 C 290.679 4.333,290.446 4.446,290.394 4.583 C 290.341 4.721,290.193 4.833,290.066 4.833 C 289.938 4.833,289.833 4.946,289.833 5.083 C 289.833 5.221,289.721 5.333,289.583 5.333 C 289.446 5.333,289.333 5.446,289.333 5.583 C 289.333 5.721,289.221 5.833,289.083 5.833 C 288.946 5.833,288.833 5.946,288.833 6.083 C 288.833 6.226,288.683 6.333,288.483 6.333 C 288.066 6.333,285.667 8.658,285.667 9.063 C 285.667 9.211,285.554 9.333,285.417 9.333 C 285.279 9.333,285.163 9.427,285.160 9.542 C 285.156 9.656,284.931 9.934,284.660 10.159 C 284.388 10.384,284.167 10.665,284.167 10.784 C 284.167 10.903,284.054 11.000,283.917 11.000 C 283.750 11.000,283.667 11.167,283.667 11.500 C 283.667 11.833,283.583 12.000,283.417 12.000 C 283.279 12.000,283.167 12.104,283.167 12.232 C 283.167 12.360,283.054 12.508,282.917 12.560 C 282.779 12.613,282.667 12.846,282.667 13.078 C 282.667 13.342,282.573 13.500,282.417 13.500 C 282.250 13.500,282.167 13.667,282.167 14.000 C 282.167 14.333,282.083 14.500,281.917 14.500 C 281.750 14.500,281.667 14.667,281.667 15.000 C 281.667 15.333,281.583 15.500,281.417 15.500 C 281.250 15.500,281.167 15.667,281.167 16.000 C 281.167 16.333,281.083 16.500,280.917 16.500 C 280.750 16.500,280.667 16.667,280.667 17.000 C 280.667 17.333,280.583 17.500,280.417 17.500 C 280.250 17.500,280.167 17.667,280.167 18.000 C 280.167 18.333,280.083 18.500,279.917 18.500 C 279.731 18.500,279.667 18.694,279.667 19.250 C 279.667 19.806,279.602 20.000,279.417 20.000 C 279.231 20.000,279.167 20.194,279.167 20.750 C 279.167 21.306,279.102 21.500,278.917 21.500 C 278.732 21.500,278.667 21.692,278.667 22.232 C 278.667 22.729,278.586 22.995,278.417 23.060 C 278.233 23.131,278.167 23.422,278.167 24.161 C 278.167 24.944,278.111 25.167,277.917 25.167 C 277.722 25.167,277.667 25.389,277.667 26.167 C 277.667 26.944,277.611 27.167,277.417 27.167 C 277.213 27.167,277.167 27.444,277.167 28.667 C 277.167 29.889,277.120 30.167,276.917 30.167 C 276.702 30.167,276.667 30.704,276.667 34.000 C 276.667 37.722,276.657 37.833,276.333 37.833 C 276.040 37.833,276.000 37.944,276.000 38.766 C 276.000 39.558,276.050 39.711,276.333 39.785 C 276.654 39.869,276.667 40.012,276.667 43.603 C 276.667 46.808,276.702 47.333,276.917 47.333 C 277.120 47.333,277.167 47.611,277.167 48.833 C 277.167 50.056,277.213 50.333,277.417 50.333 C 277.617 50.333,277.667 50.584,277.667 51.589 C 277.667 52.551,277.725 52.866,277.917 52.940 C 278.096 53.009,278.167 53.290,278.167 53.940 C 278.167 54.590,278.237 54.871,278.417 54.940 C 278.586 55.005,278.667 55.271,278.667 55.768 C 278.667 56.308,278.732 56.500,278.917 56.500 C 279.098 56.500,279.167 56.686,279.167 57.172 C 279.167 57.615,279.252 57.876,279.417 57.940 C 279.559 57.994,279.667 58.243,279.667 58.518 C 279.667 58.835,279.752 59.000,279.917 59.000 C 280.083 59.000,280.167 59.167,280.167 59.500 C 280.167 59.833,280.250 60.000,280.417 60.000 C 280.602 60.000,280.667 60.194,280.667 60.750 C 280.667 61.306,280.731 61.500,280.917 61.500 C 281.083 61.500,281.167 61.667,281.167 62.000 C 281.167 62.333,281.250 62.500,281.417 62.500 C 281.554 62.500,281.667 62.612,281.667 62.750 C 281.667 62.887,281.779 63.000,281.917 63.000 C 282.083 63.000,282.167 63.167,282.167 63.500 C 282.167 63.833,282.250 64.000,282.417 64.000 C 282.583 64.000,282.667 64.167,282.667 64.500 C 282.667 64.833,282.750 65.000,282.917 65.000 C 283.054 65.000,283.167 65.115,283.167 65.255 C 283.167 65.396,283.279 65.554,283.417 65.606 C 283.554 65.659,283.667 65.807,283.667 65.934 C 283.667 66.062,283.779 66.167,283.917 66.167 C 284.054 66.167,284.167 66.314,284.167 66.494 C 284.167 66.674,284.392 67.052,284.667 67.333 C 284.942 67.615,285.167 67.917,285.167 68.006 C 285.167 68.094,285.279 68.167,285.417 68.167 C 285.554 68.167,285.667 68.279,285.667 68.417 C 285.667 68.554,285.779 68.667,285.917 68.667 C 286.054 68.667,286.167 68.779,286.167 68.917 C 286.167 69.054,286.279 69.167,286.417 69.167 C 286.554 69.167,286.667 69.279,286.667 69.417 C 286.667 69.554,286.779 69.667,286.917 69.667 C 287.054 69.667,287.167 69.779,287.167 69.917 C 287.167 70.054,287.279 70.167,287.417 70.167 C 287.554 70.167,287.667 70.279,287.667 70.417 C 287.667 70.554,287.771 70.667,287.899 70.667 C 288.027 70.667,288.174 70.779,288.227 70.917 C 288.280 71.054,288.438 71.167,288.578 71.167 C 288.718 71.167,288.833 71.279,288.833 71.417 C 288.833 71.583,289.000 71.667,289.333 71.667 C 289.667 71.667,289.833 71.750,289.833 71.917 C 289.833 72.054,289.946 72.167,290.083 72.167 C 290.221 72.167,290.333 72.279,290.333 72.417 C 290.333 72.583,290.500 72.667,290.833 72.667 C 291.167 72.667,291.333 72.750,291.333 72.917 C 291.333 73.054,291.446 73.167,291.583 73.167 C 291.721 73.167,291.833 73.279,291.833 73.417 C 291.833 73.583,292.000 73.667,292.333 73.667 C 292.667 73.667,292.833 73.750,292.833 73.917 C 292.833 74.083,293.000 74.167,293.333 74.167 C 293.667 74.167,293.833 74.250,293.833 74.417 C 293.833 74.602,294.028 74.667,294.583 74.667 C 295.139 74.667,295.333 74.731,295.333 74.917 C 295.333 75.081,295.498 75.167,295.816 75.167 C 296.090 75.167,296.339 75.274,296.394 75.417 C 296.463 75.597,296.746 75.667,297.411 75.667 C 298.120 75.667,298.333 75.725,298.333 75.917 C 298.333 76.118,298.593 76.167,299.667 76.167 C 300.741 76.167,301.000 76.215,301.000 76.417 C 301.000 76.634,301.778 76.667,307.000 76.667 C 312.222 76.667,313.000 76.634,313.000 76.417 C 313.000 76.222,313.222 76.167,314.000 76.167 C 314.778 76.167,315.000 76.111,315.000 75.917 C 315.000 75.723,315.220 75.667,315.982 75.667 C 316.701 75.667,316.990 75.600,317.060 75.417 C 317.124 75.251,317.385 75.167,317.833 75.167 C 318.281 75.167,318.543 75.082,318.606 74.917 C 318.661 74.774,318.910 74.667,319.184 74.667 C 319.502 74.667,319.667 74.581,319.667 74.417 C 319.667 74.250,319.833 74.167,320.167 74.167 C 320.500 74.167,320.667 74.083,320.667 73.917 C 320.667 73.750,320.833 73.667,321.167 73.667 C 321.500 73.667,321.667 73.583,321.667 73.417 C 321.667 73.250,321.833 73.167,322.167 73.167 C 322.500 73.167,322.667 73.083,322.667 72.917 C 322.667 72.779,322.779 72.667,322.917 72.667 C 323.054 72.667,323.167 72.554,323.167 72.417 C 323.167 72.279,323.279 72.167,323.417 72.167 C 323.554 72.167,323.667 72.054,323.667 71.917 C 323.667 71.750,323.833 71.667,324.167 71.667 C 324.500 71.667,324.667 71.583,324.667 71.417 C 324.667 71.279,324.779 71.167,324.917 71.167 C 325.054 71.167,325.167 71.054,325.167 70.917 C 325.167 70.779,325.279 70.667,325.417 70.667 C 325.554 70.667,325.667 70.554,325.667 70.417 C 325.667 70.279,325.779 70.167,325.917 70.167 C 326.054 70.167,326.167 70.054,326.167 69.917 C 326.167 69.779,326.279 69.667,326.417 69.667 C 326.554 69.667,326.667 69.554,326.667 69.417 C 326.667 69.279,326.779 69.167,326.917 69.167 C 327.054 69.167,327.167 69.054,327.167 68.917 C 327.167 68.779,327.257 68.667,327.367 68.667 C 327.660 68.667,329.155 67.021,329.267 66.574 C 329.320 66.363,329.469 66.150,329.598 66.101 C 329.728 66.051,329.833 65.904,329.833 65.773 C 329.833 65.642,329.946 65.492,330.083 65.440 C 330.221 65.387,330.333 65.199,330.333 65.023 C 330.333 64.847,330.446 64.659,330.583 64.606 C 330.729 64.550,330.833 64.301,330.833 64.005 C 330.833 63.667,330.916 63.500,331.083 63.500 C 331.221 63.500,331.333 63.396,331.333 63.268 C 331.333 63.140,331.446 62.992,331.583 62.940 C 331.721 62.887,331.833 62.662,331.833 62.440 C 331.833 62.217,331.946 61.992,332.083 61.940 C 332.248 61.876,332.333 61.615,332.333 61.172 C 332.333 60.686,332.402 60.500,332.583 60.500 C 332.750 60.500,332.833 60.333,332.833 60.000 C 332.833 59.667,332.917 59.500,333.083 59.500 C 333.269 59.500,333.333 59.306,333.333 58.750 C 333.333 58.194,333.398 58.000,333.583 58.000 C 333.768 58.000,333.833 57.808,333.833 57.268 C 333.833 56.771,333.914 56.505,334.083 56.440 C 334.283 56.363,334.333 56.004,334.333 54.672 C 334.333 53.297,334.289 53.000,334.083 53.000 C 333.946 53.000,333.833 52.887,333.833 52.750 C 333.833 52.612,333.721 52.500,333.583 52.500 C 333.446 52.500,333.333 52.387,333.333 52.250 C 333.333 52.032,332.506 52.000,326.875 52.003 L 320.417 52.006 320.042 52.401 C 319.835 52.619,319.667 52.947,319.667 53.131 C 319.667 53.314,319.554 53.508,319.417 53.560 C 319.252 53.624,319.167 53.885,319.167 54.328 C 319.167 54.814,319.098 55.000,318.917 55.000 C 318.750 55.000,318.667 55.167,318.667 55.500 C 318.667 55.833,318.583 56.000,318.417 56.000 C 318.250 56.000,318.167 56.167,318.167 56.500 C 318.167 56.833,318.083 57.000,317.917 57.000 C 317.750 57.000,317.667 57.167,317.667 57.500 C 317.667 57.833,317.583 58.000,317.417 58.000 C 317.279 58.000,317.167 58.112,317.167 58.250 C 317.167 58.387,317.054 58.500,316.917 58.500 C 316.779 58.500,316.667 58.604,316.667 58.732 C 316.667 58.860,316.554 59.008,316.417 59.060 C 316.279 59.113,316.167 59.271,316.167 59.411 C 316.167 59.552,316.054 59.667,315.917 59.667 C 315.779 59.667,315.667 59.779,315.667 59.917 C 315.667 60.054,315.588 60.167,315.492 60.167 C 315.396 60.167,315.144 60.354,314.931 60.583 C 314.719 60.813,314.460 61.000,314.356 61.000 C 314.252 61.000,314.167 61.103,314.167 61.229 C 314.167 61.355,313.942 61.503,313.667 61.558 C 313.373 61.617,313.167 61.763,313.167 61.913 C 313.167 62.082,313.005 62.167,312.684 62.167 C 312.410 62.167,312.161 62.274,312.106 62.417 C 312.043 62.582,311.781 62.667,311.333 62.667 C 310.885 62.667,310.624 62.751,310.560 62.917 C 310.485 63.113,310.146 63.167,308.982 63.167 C 307.776 63.167,307.500 63.213,307.500 63.417 C 307.500 63.554,307.387 63.667,307.250 63.667 C 307.112 63.667,307.000 63.554,307.000 63.417 C 307.000 63.213,306.724 63.167,305.518 63.167 C 304.354 63.167,304.015 63.113,303.940 62.917 C 303.874 62.745,303.606 62.667,303.089 62.667 C 302.528 62.667,302.333 62.602,302.333 62.417 C 302.333 62.250,302.167 62.167,301.833 62.167 C 301.496 62.167,301.333 62.084,301.333 61.913 C 301.333 61.763,301.127 61.617,300.833 61.558 C 300.558 61.503,300.333 61.355,300.333 61.229 C 300.333 61.103,300.221 61.000,300.083 61.000 C 299.946 61.000,299.833 60.931,299.833 60.847 C 299.833 60.762,299.608 60.644,299.333 60.583 C 299.058 60.523,298.833 60.367,298.833 60.237 C 298.833 60.107,298.721 60.000,298.583 60.000 C 298.446 60.000,298.333 59.887,298.333 59.750 C 298.333 59.612,298.221 59.500,298.083 59.500 C 297.946 59.500,297.833 59.387,297.833 59.250 C 297.833 59.112,297.721 59.000,297.583 59.000 C 297.446 59.000,297.333 58.887,297.333 58.750 C 297.333 58.612,297.221 58.500,297.083 58.500 C 296.927 58.500,296.833 58.342,296.833 58.078 C 296.833 57.846,296.721 57.613,296.583 57.560 C 296.446 57.508,296.333 57.360,296.333 57.232 C 296.333 57.104,296.221 57.000,296.083 57.000 C 295.917 57.000,295.833 56.833,295.833 56.500 C 295.833 56.167,295.750 56.000,295.583 56.000 C 295.427 56.000,295.333 55.842,295.333 55.578 C 295.333 55.346,295.221 55.113,295.083 55.060 C 294.941 55.006,294.833 54.757,294.833 54.482 C 294.833 54.165,294.748 54.000,294.583 54.000 C 294.417 54.000,294.333 53.833,294.333 53.500 C 294.333 53.167,294.250 53.000,294.083 53.000 C 293.898 53.000,293.833 52.806,293.833 52.250 C 293.833 51.694,293.769 51.500,293.583 51.500 C 293.398 51.500,293.333 51.306,293.333 50.750 C 293.333 50.194,293.269 50.000,293.083 50.000 C 292.887 50.000,292.833 49.770,292.833 48.929 C 292.833 48.198,292.754 47.778,292.583 47.607 C 292.400 47.424,292.333 46.976,292.333 45.923 C 292.333 44.803,292.279 44.469,292.083 44.394 C 291.867 44.311,291.833 43.444,291.833 38.000 C 291.833 32.556,291.867 31.689,292.083 31.606 C 292.278 31.532,292.333 31.201,292.333 30.106 C 292.333 29.012,292.388 28.681,292.583 28.606 C 292.764 28.537,292.833 28.254,292.833 27.583 C 292.833 26.913,292.903 26.630,293.083 26.560 C 293.266 26.490,293.333 26.201,293.333 25.482 C 293.333 24.720,293.389 24.500,293.583 24.500 C 293.748 24.500,293.833 24.335,293.833 24.018 C 293.833 23.743,293.941 23.494,294.083 23.440 C 294.248 23.376,294.333 23.115,294.333 22.672 C 294.333 22.186,294.402 22.000,294.583 22.000 C 294.750 22.000,294.833 21.833,294.833 21.500 C 294.833 21.167,294.917 21.000,295.083 21.000 C 295.250 21.000,295.333 20.833,295.333 20.500 C 295.333 20.167,295.417 20.000,295.583 20.000 C 295.721 20.000,295.833 19.887,295.833 19.750 C 295.833 19.612,295.946 19.500,296.083 19.500 C 296.250 19.500,296.333 19.333,296.333 19.000 C 296.333 18.667,296.417 18.500,296.583 18.500 C 296.721 18.500,296.833 18.387,296.833 18.250 C 296.833 18.112,296.946 18.000,297.083 18.000 C 297.221 18.000,297.333 17.887,297.333 17.750 C 297.333 17.612,297.446 17.500,297.583 17.500 C 297.721 17.500,297.833 17.387,297.833 17.250 C 297.833 17.112,297.946 17.000,298.083 17.000 C 298.221 17.000,298.333 16.887,298.333 16.750 C 298.333 16.612,298.446 16.500,298.583 16.500 C 298.721 16.500,298.833 16.387,298.833 16.250 C 298.833 16.112,298.946 16.000,299.083 16.000 C 299.221 16.000,299.333 15.887,299.333 15.750 C 299.333 15.594,299.491 15.500,299.755 15.500 C 299.987 15.500,300.220 15.388,300.273 15.250 C 300.326 15.113,300.473 15.000,300.601 15.000 C 300.729 15.000,300.833 14.887,300.833 14.750 C 300.833 14.583,301.000 14.500,301.333 14.500 C 301.667 14.500,301.833 14.417,301.833 14.250 C 301.833 14.065,302.028 14.000,302.589 14.000 C 303.106 14.000,303.374 13.921,303.440 13.750 C 303.514 13.555,303.845 13.500,304.940 13.500 C 306.034 13.500,306.365 13.445,306.440 13.250 C 306.565 12.924,307.435 12.924,307.560 13.250 C 307.635 13.444,307.967 13.501,309.036 13.505 C 309.985 13.509,310.518 13.587,310.740 13.755 C 310.918 13.890,311.265 14.000,311.511 14.000 C 311.758 14.000,312.053 14.112,312.167 14.250 C 312.281 14.387,312.520 14.500,312.699 14.500 C 312.878 14.500,313.136 14.612,313.274 14.750 C 313.411 14.887,313.668 15.000,313.845 15.000 C 314.022 15.000,314.167 15.112,314.167 15.250 C 314.167 15.387,314.271 15.500,314.399 15.500 C 314.527 15.500,314.674 15.613,314.727 15.750 C 314.780 15.888,315.013 16.000,315.245 16.000 C 315.509 16.000,315.667 16.094,315.667 16.250 C 315.667 16.387,315.779 16.500,315.917 16.500 C 316.054 16.500,316.167 16.612,316.167 16.750 C 316.167 16.887,316.279 17.000,316.417 17.000 C 316.573 17.000,316.667 17.158,316.667 17.422 C 316.667 17.654,316.779 17.887,316.917 17.940 C 317.054 17.992,317.167 18.140,317.167 18.268 C 317.167 18.396,317.279 18.500,317.417 18.500 C 317.573 18.500,317.667 18.658,317.667 18.922 C 317.667 19.154,317.779 19.387,317.917 19.440 C 318.054 19.492,318.167 19.640,318.167 19.768 C 318.167 19.896,318.279 20.000,318.417 20.000 C 318.598 20.000,318.667 20.186,318.667 20.672 C 318.667 21.115,318.752 21.376,318.917 21.440 C 319.059 21.494,319.167 21.743,319.167 22.018 C 319.167 22.335,319.252 22.500,319.417 22.500 C 319.594 22.500,319.668 22.682,319.670 23.125 C 319.672 23.564,319.790 23.862,320.068 24.125 L 320.464 24.500 326.898 24.500 C 332.507 24.500,333.333 24.468,333.333 24.250 C 333.333 24.113,333.446 24.000,333.583 24.000 C 333.721 24.000,333.833 23.887,333.833 23.750 C 333.833 23.613,333.946 23.500,334.083 23.500 C 334.290 23.500,334.333 23.194,334.333 21.750 C 334.333 20.306,334.290 20.000,334.083 20.000 C 333.889 20.000,333.833 19.778,333.833 19.000 C 333.833 18.222,333.778 18.000,333.583 18.000 C 333.398 18.000,333.333 17.806,333.333 17.250 C 333.333 16.694,333.269 16.500,333.083 16.500 C 332.902 16.500,332.833 16.314,332.833 15.828 C 332.833 15.385,332.748 15.124,332.583 15.060 C 332.441 15.006,332.333 14.757,332.333 14.482 C 332.333 14.165,332.248 14.000,332.083 14.000 C 331.917 14.000,331.833 13.833,331.833 13.500 C 331.833 13.167,331.750 13.000,331.583 13.000 C 331.427 13.000,331.333 12.842,331.333 12.578 C 331.333 12.346,331.221 12.113,331.083 12.060 C 330.946 12.008,330.833 11.860,330.833 11.732 C 330.833 11.604,330.721 11.500,330.583 11.500 C 330.427 11.500,330.333 11.342,330.333 11.078 C 330.333 10.832,330.132 10.459,329.852 10.185 C 329.588 9.926,329.320 9.554,329.258 9.357 C 329.195 9.161,329.074 9.000,328.989 9.000 C 328.903 9.000,328.833 8.916,328.833 8.814 C 328.833 8.571,327.595 7.333,327.353 7.333 C 327.250 7.333,327.167 7.221,327.167 7.083 C 327.167 6.946,327.054 6.833,326.917 6.833 C 326.779 6.833,326.667 6.721,326.667 6.583 C 326.667 6.446,326.554 6.333,326.417 6.333 C 326.279 6.333,326.167 6.221,326.167 6.083 C 326.167 5.946,326.054 5.833,325.917 5.833 C 325.779 5.833,325.667 5.721,325.667 5.583 C 325.667 5.446,325.554 5.333,325.417 5.333 C 325.279 5.333,325.167 5.221,325.167 5.083 C 325.167 4.917,325.000 4.833,324.667 4.833 C 324.333 4.833,324.167 4.750,324.167 4.583 C 324.167 4.446,324.054 4.333,323.917 4.333 C 323.779 4.333,323.667 4.221,323.667 4.083 C 323.667 3.946,323.562 3.833,323.434 3.833 C 323.307 3.833,323.159 3.721,323.106 3.583 C 323.054 3.446,322.821 3.333,322.589 3.333 C 322.325 3.333,322.167 3.240,322.167 3.083 C 322.167 2.917,322.000 2.833,321.667 2.833 C 321.333 2.833,321.167 2.750,321.167 2.583 C 321.167 2.417,321.000 2.333,320.667 2.333 C 320.333 2.333,320.167 2.250,320.167 2.083 C 320.167 1.919,320.002 1.833,319.684 1.833 C 319.410 1.833,319.161 1.726,319.106 1.583 C 319.043 1.418,318.782 1.333,318.339 1.333 C 317.852 1.333,317.667 1.264,317.667 1.083 C 317.667 0.894,317.463 0.833,316.833 0.833 C 316.204 0.833,316.000 0.772,316.000 0.583 C 316.000 0.383,315.750 0.333,314.750 0.333 C 314.028 0.333,313.500 0.263,313.500 0.167 C 313.500 -0.099,302.551 -0.058,302.444 0.208 C 302.376 0.375,302.357 0.375,302.346 0.208 C 302.331 -0.037,301.500 -0.078,301.500 0.167 M345.111 0.944 C 345.050 1.006,345.000 1.231,345.000 1.444 C 345.000 1.679,344.901 1.833,344.750 1.833 C 344.529 1.833,344.500 5.991,344.500 38.250 C 344.500 69.759,344.532 74.667,344.739 74.667 C 344.876 74.667,345.000 74.863,345.031 75.125 L 345.083 75.583 351.333 75.583 L 357.583 75.583 357.636 75.125 C 357.666 74.863,357.791 74.667,357.928 74.667 C 358.298 74.667,358.287 27.869,357.917 27.727 C 357.707 27.646,357.667 27.128,357.667 24.487 C 357.667 21.762,357.700 21.357,357.917 21.440 C 358.059 21.494,358.167 21.743,358.167 22.018 C 358.167 22.335,358.252 22.500,358.417 22.500 C 358.583 22.500,358.667 22.667,358.667 23.000 C 358.667 23.333,358.750 23.500,358.917 23.500 C 359.090 23.500,359.167 23.675,359.167 24.071 C 359.167 24.386,359.279 24.755,359.417 24.893 C 359.554 25.030,359.667 25.289,359.667 25.468 C 359.667 25.646,359.779 25.886,359.917 26.000 C 360.054 26.114,360.167 26.388,360.167 26.609 C 360.167 26.830,360.279 27.054,360.417 27.106 C 360.554 27.159,360.667 27.384,360.667 27.606 C 360.667 27.829,360.779 28.054,360.917 28.106 C 361.059 28.161,361.167 28.410,361.167 28.684 C 361.167 28.950,361.317 29.317,361.500 29.500 C 361.683 29.683,361.833 30.021,361.833 30.250 C 361.833 30.509,361.928 30.667,362.083 30.667 C 362.250 30.667,362.333 30.833,362.333 31.167 C 362.333 31.500,362.417 31.667,362.583 31.667 C 362.750 31.667,362.833 31.833,362.833 32.167 C 362.833 32.500,362.917 32.667,363.083 32.667 C 363.269 32.667,363.333 32.861,363.333 33.417 C 363.333 33.972,363.398 34.167,363.583 34.167 C 363.750 34.167,363.833 34.333,363.833 34.667 C 363.833 35.000,363.917 35.167,364.083 35.167 C 364.250 35.167,364.333 35.333,364.333 35.667 C 364.333 36.000,364.417 36.167,364.583 36.167 C 364.750 36.167,364.833 36.333,364.833 36.667 C 364.833 37.000,364.917 37.167,365.083 37.167 C 365.250 37.167,365.333 37.333,365.333 37.667 C 365.333 38.000,365.417 38.167,365.583 38.167 C 365.758 38.167,365.833 38.343,365.833 38.750 C 365.833 39.157,365.909 39.333,366.083 39.333 C 366.264 39.333,366.333 39.519,366.333 40.000 C 366.333 40.481,366.403 40.667,366.583 40.667 C 366.751 40.667,366.833 40.834,366.833 41.172 C 366.833 41.467,366.937 41.717,367.083 41.773 C 367.221 41.826,367.333 42.051,367.333 42.273 C 367.333 42.495,367.446 42.720,367.583 42.773 C 367.726 42.828,367.833 43.076,367.833 43.351 C 367.833 43.669,367.919 43.833,368.083 43.833 C 368.250 43.833,368.333 44.000,368.333 44.333 C 368.333 44.667,368.417 44.833,368.583 44.833 C 368.750 44.833,368.833 45.000,368.833 45.333 C 368.833 45.667,368.917 45.833,369.083 45.833 C 369.264 45.833,369.333 46.019,369.333 46.505 C 369.333 46.949,369.418 47.210,369.583 47.273 C 369.721 47.326,369.833 47.551,369.833 47.773 C 369.833 47.995,369.946 48.220,370.083 48.273 C 370.226 48.328,370.333 48.576,370.333 48.851 C 370.333 49.169,370.419 49.333,370.583 49.333 C 370.750 49.333,370.833 49.500,370.833 49.833 C 370.833 50.167,370.917 50.333,371.083 50.333 C 371.251 50.333,371.333 50.501,371.333 50.839 C 371.333 51.134,371.437 51.384,371.583 51.440 C 371.721 51.492,371.833 51.717,371.833 51.940 C 371.833 52.162,371.946 52.387,372.083 52.440 C 372.221 52.492,372.333 52.717,372.333 52.940 C 372.333 53.162,372.446 53.387,372.583 53.440 C 372.721 53.492,372.833 53.709,372.833 53.921 C 372.833 54.382,373.618 56.000,373.842 56.000 C 373.929 56.000,374.000 56.225,374.000 56.500 C 374.000 56.833,374.083 57.000,374.250 57.000 C 374.417 57.000,374.500 57.167,374.500 57.500 C 374.500 57.833,374.583 58.000,374.750 58.000 C 374.917 58.000,375.000 58.167,375.000 58.500 C 375.000 58.833,375.083 59.000,375.250 59.000 C 375.417 59.000,375.500 59.167,375.500 59.500 C 375.500 59.833,375.583 60.000,375.750 60.000 C 375.917 60.000,376.000 60.167,376.000 60.500 C 376.000 60.833,376.083 61.000,376.250 61.000 C 376.417 61.000,376.500 61.167,376.500 61.500 C 376.500 61.833,376.583 62.000,376.750 62.000 C 376.935 62.000,377.000 62.194,377.000 62.750 C 377.000 63.306,377.065 63.500,377.250 63.500 C 377.417 63.500,377.500 63.667,377.500 64.000 C 377.500 64.333,377.583 64.500,377.750 64.500 C 377.917 64.500,378.000 64.667,378.000 65.005 C 378.000 65.301,378.104 65.550,378.250 65.606 C 378.393 65.661,378.500 65.910,378.500 66.184 C 378.500 66.502,378.585 66.667,378.750 66.667 C 378.917 66.667,379.000 66.833,379.000 67.167 C 379.000 67.500,379.083 67.667,379.250 67.667 C 379.417 67.667,379.500 67.833,379.500 68.167 C 379.500 68.500,379.583 68.667,379.750 68.667 C 379.917 68.667,380.000 68.833,380.000 69.167 C 380.000 69.500,380.083 69.667,380.250 69.667 C 380.417 69.667,380.500 69.833,380.500 70.167 C 380.500 70.500,380.583 70.667,380.750 70.667 C 380.917 70.667,381.000 70.833,381.000 71.167 C 381.000 71.500,381.083 71.667,381.250 71.667 C 381.431 71.667,381.500 71.852,381.500 72.339 C 381.500 72.782,381.585 73.043,381.750 73.106 C 381.887 73.159,382.000 73.384,382.000 73.606 C 382.000 73.829,382.113 74.054,382.250 74.106 C 382.387 74.159,382.500 74.384,382.500 74.606 C 382.500 74.829,382.613 75.054,382.750 75.106 C 382.887 75.159,383.000 75.307,383.000 75.434 C 383.000 75.630,384.321 75.667,391.333 75.667 C 398.630 75.667,399.667 75.636,399.667 75.417 C 399.667 75.279,399.742 75.167,399.833 75.167 C 399.944 75.167,400.000 62.750,400.000 38.250 C 400.000 13.750,399.944 1.333,399.833 1.333 C 399.742 1.333,399.667 1.221,399.667 1.083 C 399.667 0.866,398.889 0.833,393.667 0.833 C 388.444 0.833,387.667 0.866,387.667 1.083 C 387.667 1.221,387.554 1.333,387.417 1.333 C 387.196 1.333,387.163 4.333,387.137 27.208 C 387.120 41.440,387.078 52.727,387.044 52.292 C 387.001 51.741,386.908 51.500,386.741 51.500 C 386.584 51.500,386.500 51.325,386.500 51.000 C 386.500 50.667,386.417 50.500,386.250 50.500 C 386.083 50.500,386.000 50.333,386.000 50.000 C 386.000 49.667,385.917 49.500,385.750 49.500 C 385.565 49.500,385.500 49.306,385.500 48.750 C 385.500 48.194,385.435 48.000,385.250 48.000 C 385.083 48.000,385.000 47.833,385.000 47.500 C 385.000 47.167,384.917 47.000,384.750 47.000 C 384.575 47.000,384.500 46.824,384.500 46.417 C 384.500 46.009,384.425 45.833,384.250 45.833 C 384.083 45.833,384.000 45.667,384.000 45.333 C 384.000 45.000,383.917 44.833,383.750 44.833 C 383.583 44.833,383.500 44.667,383.500 44.333 C 383.500 44.000,383.417 43.833,383.250 43.833 C 383.083 43.833,383.000 43.667,383.000 43.333 C 383.000 43.000,382.917 42.833,382.750 42.833 C 382.569 42.833,382.500 42.648,382.500 42.161 C 382.500 41.718,382.415 41.457,382.250 41.394 C 382.107 41.339,382.000 41.090,382.000 40.816 C 382.000 40.498,381.915 40.333,381.750 40.333 C 381.583 40.333,381.500 40.167,381.500 39.833 C 381.500 39.500,381.417 39.333,381.250 39.333 C 381.083 39.333,381.000 39.167,381.000 38.833 C 381.000 38.500,380.917 38.333,380.750 38.333 C 380.583 38.333,380.500 38.167,380.500 37.833 C 380.500 37.500,380.417 37.333,380.250 37.333 C 380.083 37.333,380.000 37.167,380.000 36.833 C 380.000 36.500,379.917 36.333,379.750 36.333 C 379.583 36.333,379.500 36.166,379.500 35.828 C 379.500 35.533,379.396 35.283,379.250 35.227 C 379.113 35.174,379.000 34.949,379.000 34.727 C 379.000 34.505,378.887 34.280,378.750 34.227 C 378.597 34.168,378.500 33.916,378.500 33.575 C 378.500 33.270,378.431 32.977,378.348 32.926 C 378.127 32.789,377.500 31.445,377.500 31.109 C 377.500 30.952,377.387 30.780,377.250 30.727 C 377.113 30.674,377.000 30.449,377.000 30.227 C 377.000 30.005,376.887 29.780,376.750 29.727 C 376.613 29.674,376.500 29.449,376.500 29.227 C 376.500 29.005,376.387 28.780,376.250 28.727 C 376.107 28.672,376.000 28.424,376.000 28.149 C 376.000 27.778,375.923 27.667,375.667 27.667 C 375.407 27.667,375.333 27.556,375.333 27.167 C 375.333 26.833,375.250 26.667,375.083 26.667 C 374.917 26.667,374.833 26.500,374.833 26.167 C 374.833 25.833,374.750 25.667,374.583 25.667 C 374.417 25.667,374.333 25.500,374.333 25.167 C 374.333 24.833,374.250 24.667,374.083 24.667 C 373.917 24.667,373.833 24.500,373.833 24.167 C 373.833 23.833,373.750 23.667,373.583 23.667 C 373.409 23.667,373.333 23.491,373.333 23.083 C 373.333 22.676,373.258 22.500,373.083 22.500 C 372.903 22.500,372.833 22.315,372.833 21.833 C 372.833 21.352,372.764 21.167,372.583 21.167 C 372.416 21.167,372.333 20.999,372.333 20.661 C 372.333 20.366,372.229 20.116,372.083 20.060 C 371.946 20.008,371.833 19.783,371.833 19.560 C 371.833 19.338,371.721 19.113,371.583 19.060 C 371.441 19.006,371.333 18.757,371.333 18.482 C 371.333 18.165,371.248 18.000,371.083 18.000 C 370.917 18.000,370.833 17.833,370.833 17.500 C 370.833 17.167,370.750 17.000,370.583 17.000 C 370.417 17.000,370.333 16.833,370.333 16.500 C 370.333 16.167,370.250 16.000,370.083 16.000 C 369.917 16.000,369.833 15.833,369.833 15.500 C 369.833 15.167,369.750 15.000,369.583 15.000 C 369.417 15.000,369.333 14.833,369.333 14.500 C 369.333 14.167,369.250 14.000,369.083 14.000 C 368.917 14.000,368.833 13.833,368.833 13.500 C 368.833 13.167,368.750 13.000,368.583 13.000 C 368.417 13.000,368.333 12.833,368.333 12.500 C 368.333 12.167,368.250 12.000,368.083 12.000 C 367.917 12.000,367.833 11.833,367.833 11.500 C 367.833 11.167,367.750 11.000,367.583 11.000 C 367.416 11.000,367.333 10.833,367.333 10.495 C 367.333 10.199,367.229 9.950,367.083 9.894 C 366.946 9.841,366.833 9.616,366.833 9.394 C 366.833 9.171,366.721 8.946,366.583 8.894 C 366.441 8.839,366.333 8.590,366.333 8.316 C 366.333 7.998,366.248 7.833,366.083 7.833 C 365.928 7.833,365.833 7.676,365.833 7.416 C 365.833 7.187,365.683 6.719,365.500 6.377 C 365.317 6.035,365.167 5.660,365.167 5.544 C 365.167 5.428,365.098 5.333,365.013 5.333 C 364.929 5.333,364.810 5.108,364.750 4.833 C 364.690 4.558,364.571 4.333,364.487 4.333 C 364.402 4.333,364.333 4.143,364.333 3.911 C 364.333 3.679,364.221 3.446,364.083 3.394 C 363.946 3.341,363.833 3.111,363.833 2.883 C 363.833 2.609,363.721 2.439,363.500 2.382 C 363.264 2.320,363.167 2.154,363.167 1.814 C 363.167 1.498,363.081 1.333,362.917 1.333 C 362.779 1.333,362.667 1.221,362.667 1.083 C 362.667 0.820,345.372 0.684,345.111 0.944 M64.667 4.083 C 64.667 4.250,64.500 4.333,64.167 4.333 C 63.833 4.333,63.667 4.417,63.667 4.583 C 63.667 4.721,63.554 4.833,63.417 4.833 C 63.199 4.833,63.167 5.676,63.167 11.417 C 63.167 17.157,63.135 18.000,62.917 18.000 C 62.750 18.000,62.667 18.167,62.667 18.500 L 62.667 19.000 59.925 19.000 C 57.746 19.000,57.156 19.048,57.050 19.234 C 56.977 19.363,56.729 19.494,56.500 19.526 C 56.202 19.567,56.067 19.702,56.026 20.000 C 55.994 20.229,55.863 20.477,55.734 20.550 C 55.372 20.756,55.388 30.467,55.750 30.606 C 55.887 30.659,56.000 30.807,56.000 30.934 C 56.000 31.062,56.104 31.167,56.232 31.167 C 56.360 31.167,56.508 31.279,56.560 31.417 C 56.640 31.625,57.116 31.667,59.411 31.667 C 61.749 31.667,62.167 31.705,62.167 31.917 C 62.167 32.054,62.279 32.167,62.417 32.167 C 62.554 32.167,62.667 32.279,62.667 32.417 C 62.667 32.554,62.779 32.667,62.917 32.667 C 63.137 32.667,63.167 34.611,63.167 49.167 C 63.167 63.722,63.196 65.667,63.417 65.667 C 63.617 65.667,63.667 65.917,63.667 66.917 C 63.667 67.917,63.717 68.167,63.917 68.167 C 64.102 68.167,64.167 68.361,64.167 68.917 C 64.167 69.472,64.231 69.667,64.417 69.667 C 64.598 69.667,64.667 69.852,64.667 70.339 C 64.667 70.782,64.752 71.043,64.917 71.106 C 65.054 71.159,65.167 71.307,65.167 71.434 C 65.167 71.562,65.279 71.667,65.417 71.667 C 65.583 71.667,65.667 71.833,65.667 72.167 C 65.667 72.500,65.750 72.667,65.917 72.667 C 66.054 72.667,66.167 72.779,66.167 72.917 C 66.167 73.054,66.279 73.167,66.417 73.167 C 66.554 73.167,66.667 73.279,66.667 73.417 C 66.667 73.554,66.779 73.667,66.917 73.667 C 67.054 73.667,67.167 73.779,67.167 73.917 C 67.167 74.054,67.279 74.167,67.417 74.167 C 67.554 74.167,67.667 74.279,67.667 74.417 C 67.667 74.583,67.833 74.667,68.167 74.667 C 68.500 74.667,68.667 74.750,68.667 74.917 C 68.667 75.054,68.782 75.167,68.922 75.167 C 69.062 75.167,69.220 75.279,69.273 75.417 C 69.338 75.586,69.604 75.667,70.101 75.667 C 70.641 75.667,70.833 75.732,70.833 75.917 C 70.833 76.117,71.083 76.167,72.083 76.167 C 73.083 76.167,73.333 76.217,73.333 76.417 C 73.333 76.632,73.889 76.667,77.333 76.667 C 80.778 76.667,81.333 76.632,81.333 76.417 C 81.333 76.213,81.611 76.167,82.833 76.167 C 84.056 76.167,84.333 76.120,84.333 75.917 C 84.333 75.778,84.481 75.667,84.667 75.667 C 84.852 75.667,85.000 75.556,85.000 75.417 C 85.000 75.279,85.112 75.167,85.250 75.167 C 85.467 75.167,85.500 74.500,85.500 70.167 C 85.500 65.833,85.467 65.167,85.250 65.167 C 85.112 65.167,85.000 65.054,85.000 64.917 C 85.000 64.778,84.852 64.667,84.667 64.667 C 84.481 64.667,84.333 64.556,84.333 64.417 C 84.333 64.208,84.000 64.167,82.333 64.167 C 80.667 64.167,80.333 64.125,80.333 63.917 C 80.333 63.731,80.139 63.667,79.583 63.667 C 79.028 63.667,78.833 63.602,78.833 63.417 C 78.833 63.279,78.721 63.167,78.583 63.167 C 78.417 63.167,78.333 63.000,78.333 62.667 C 78.333 62.333,78.250 62.167,78.083 62.167 C 77.898 62.167,77.833 61.972,77.833 61.411 C 77.833 60.894,77.755 60.626,77.583 60.560 C 77.364 60.476,77.333 58.766,77.333 46.566 C 77.333 34.322,77.363 32.667,77.583 32.667 C 77.721 32.667,77.833 32.554,77.833 32.417 C 77.833 32.279,77.946 32.167,78.083 32.167 C 78.221 32.167,78.333 32.054,78.333 31.917 C 78.333 31.702,78.862 31.667,82.089 31.667 C 85.273 31.667,85.858 31.629,85.940 31.417 C 85.992 31.279,86.140 31.167,86.268 31.167 C 86.396 31.167,86.500 31.060,86.500 30.931 C 86.500 30.801,86.594 30.663,86.708 30.625 C 87.041 30.515,87.104 20.821,86.774 20.580 C 86.641 20.483,86.506 20.219,86.475 19.993 C 86.434 19.703,86.295 19.567,86.000 19.526 C 85.771 19.494,85.523 19.363,85.450 19.234 C 85.342 19.045,84.660 19.000,81.908 19.000 C 78.374 19.000,77.833 18.889,77.833 18.167 C 77.833 18.075,77.721 18.000,77.583 18.000 C 77.365 18.000,77.333 17.166,77.333 11.495 C 77.333 5.866,77.300 4.977,77.083 4.894 C 76.946 4.841,76.833 4.693,76.833 4.566 C 76.833 4.419,76.650 4.333,76.333 4.333 C 76.000 4.333,75.833 4.250,75.833 4.083 C 75.833 3.866,75.102 3.833,70.250 3.833 C 65.398 3.833,64.667 3.866,64.667 4.083 M108.894 18.250 C 108.823 18.433,108.534 18.500,107.810 18.500 C 107.086 18.500,106.797 18.567,106.727 18.750 C 106.664 18.913,106.405 19.000,105.977 19.000 C 105.549 19.000,105.290 19.087,105.227 19.250 C 105.172 19.393,104.924 19.500,104.649 19.500 C 104.331 19.500,104.167 19.585,104.167 19.750 C 104.167 19.917,104.000 20.000,103.667 20.000 C 103.333 20.000,103.167 20.083,103.167 20.250 C 103.167 20.417,103.000 20.500,102.667 20.500 C 102.351 20.500,102.167 20.585,102.167 20.732 C 102.167 20.859,101.964 21.015,101.717 21.077 C 101.469 21.139,101.098 21.372,100.891 21.595 C 100.685 21.818,100.437 22.000,100.341 22.000 C 100.245 22.000,100.167 22.104,100.167 22.232 C 100.167 22.359,99.978 22.511,99.747 22.569 C 99.237 22.697,98.667 23.164,98.667 23.454 C 98.667 23.571,98.554 23.667,98.417 23.667 C 98.279 23.667,98.167 23.779,98.167 23.917 C 98.167 24.054,98.054 24.167,97.917 24.167 C 97.779 24.167,97.667 24.279,97.667 24.417 C 97.667 24.554,97.554 24.667,97.417 24.667 C 97.250 24.667,97.167 24.833,97.167 25.167 C 97.167 25.500,97.083 25.667,96.917 25.667 C 96.779 25.667,96.667 25.779,96.667 25.917 C 96.667 26.054,96.554 26.167,96.417 26.167 C 96.279 26.167,96.167 26.279,96.167 26.417 C 96.167 26.554,96.054 26.667,95.917 26.667 C 95.750 26.667,95.667 26.833,95.667 27.167 C 95.667 27.500,95.583 27.667,95.417 27.667 C 95.279 27.667,95.167 27.779,95.167 27.917 C 95.167 28.054,95.060 28.167,94.930 28.167 C 94.800 28.167,94.645 28.385,94.586 28.653 C 94.528 28.920,94.372 29.180,94.240 29.231 C 94.108 29.281,94.000 29.505,94.000 29.727 C 94.000 29.949,93.888 30.174,93.750 30.227 C 93.612 30.280,93.500 30.506,93.500 30.731 C 93.500 30.955,93.423 31.164,93.329 31.196 C 93.236 31.227,93.112 31.552,93.054 31.918 C 92.997 32.284,92.848 32.643,92.725 32.717 C 92.598 32.792,92.500 33.130,92.500 33.490 C 92.500 33.906,92.412 34.165,92.250 34.227 C 92.085 34.290,92.000 34.552,92.000 35.000 C 92.000 35.448,91.915 35.710,91.750 35.773 C 91.568 35.843,91.500 36.130,91.500 36.833 C 91.500 37.537,91.432 37.824,91.250 37.894 C 91.055 37.968,91.000 38.299,91.000 39.394 C 91.000 40.488,90.945 40.819,90.750 40.894 C 90.533 40.977,90.500 41.913,90.500 47.917 C 90.500 53.920,90.533 54.857,90.750 54.940 C 90.945 55.014,91.000 55.345,91.000 56.440 C 91.000 57.534,91.055 57.865,91.250 57.940 C 91.430 58.009,91.500 58.290,91.500 58.940 C 91.500 59.590,91.570 59.871,91.750 59.940 C 91.920 60.005,92.000 60.271,92.000 60.768 C 92.000 61.308,92.066 61.500,92.250 61.500 C 92.424 61.500,92.500 61.675,92.500 62.071 C 92.500 62.386,92.612 62.755,92.750 62.893 C 92.888 63.030,93.000 63.336,93.000 63.571 C 93.000 63.841,93.093 64.000,93.250 64.000 C 93.417 64.000,93.500 64.167,93.500 64.505 C 93.500 64.801,93.604 65.050,93.750 65.106 C 93.888 65.159,94.000 65.384,94.000 65.606 C 94.000 65.829,94.104 66.050,94.231 66.099 C 94.359 66.148,94.507 66.408,94.560 66.677 C 94.617 66.962,94.765 67.167,94.912 67.167 C 95.052 67.167,95.167 67.279,95.167 67.417 C 95.167 67.554,95.279 67.667,95.417 67.667 C 95.583 67.667,95.667 67.833,95.667 68.167 C 95.667 68.500,95.750 68.667,95.917 68.667 C 96.054 68.667,96.167 68.779,96.167 68.917 C 96.167 69.054,96.279 69.167,96.417 69.167 C 96.566 69.167,96.667 69.320,96.667 69.549 C 96.667 69.770,96.875 70.105,97.160 70.341 C 97.431 70.566,97.656 70.844,97.660 70.958 C 97.663 71.073,97.779 71.167,97.917 71.167 C 98.054 71.167,98.167 71.279,98.167 71.417 C 98.167 71.554,98.279 71.667,98.417 71.667 C 98.554 71.667,98.667 71.779,98.667 71.917 C 98.667 72.054,98.779 72.167,98.917 72.167 C 99.054 72.167,99.167 72.279,99.167 72.417 C 99.167 72.583,99.333 72.667,99.667 72.667 C 100.000 72.667,100.167 72.750,100.167 72.917 C 100.167 73.054,100.279 73.167,100.417 73.167 C 100.554 73.167,100.667 73.279,100.667 73.417 C 100.667 73.554,100.771 73.667,100.899 73.667 C 101.027 73.667,101.174 73.779,101.227 73.917 C 101.280 74.054,101.513 74.167,101.745 74.167 C 102.009 74.167,102.167 74.260,102.167 74.417 C 102.167 74.583,102.333 74.667,102.667 74.667 C 103.000 74.667,103.167 74.750,103.167 74.917 C 103.167 75.083,103.333 75.167,103.667 75.167 C 104.000 75.167,104.167 75.250,104.167 75.417 C 104.167 75.602,104.361 75.667,104.917 75.667 C 105.472 75.667,105.667 75.731,105.667 75.917 C 105.667 76.106,105.870 76.167,106.500 76.167 C 107.130 76.167,107.333 76.228,107.333 76.417 C 107.333 76.617,107.583 76.667,108.583 76.667 C 109.306 76.667,109.833 76.737,109.833 76.833 C 109.833 76.925,110.058 77.000,110.333 77.000 C 110.608 77.000,110.833 76.925,110.833 76.833 C 110.833 76.742,110.946 76.667,111.083 76.667 C 111.221 76.667,111.333 76.742,111.333 76.833 C 111.333 76.936,112.194 77.000,113.583 77.000 C 114.972 77.000,115.833 76.936,115.833 76.833 C 115.833 76.742,115.946 76.667,116.083 76.667 C 116.221 76.667,116.333 76.742,116.333 76.833 C 116.333 76.925,116.558 77.000,116.833 77.000 C 117.108 77.000,117.333 76.925,117.333 76.833 C 117.333 76.737,117.861 76.667,118.583 76.667 C 119.583 76.667,119.833 76.617,119.833 76.417 C 119.833 76.222,120.056 76.167,120.839 76.167 C 121.578 76.167,121.869 76.101,121.940 75.917 C 122.002 75.755,122.260 75.667,122.667 75.667 C 123.074 75.667,123.332 75.578,123.394 75.417 C 123.450 75.271,123.699 75.167,123.995 75.167 C 124.333 75.167,124.500 75.084,124.500 74.917 C 124.500 74.760,124.658 74.667,124.922 74.667 C 125.154 74.667,125.387 74.554,125.440 74.417 C 125.492 74.279,125.640 74.167,125.768 74.167 C 125.896 74.167,126.000 74.054,126.000 73.917 C 126.000 73.750,126.167 73.667,126.500 73.667 C 126.833 73.667,127.000 73.583,127.000 73.417 C 127.000 73.279,127.112 73.167,127.250 73.167 C 127.388 73.167,127.500 73.054,127.500 72.917 C 127.500 72.750,127.667 72.667,128.000 72.667 C 128.333 72.667,128.500 72.583,128.500 72.417 C 128.500 72.279,128.612 72.167,128.750 72.167 C 128.887 72.167,129.000 72.054,129.000 71.917 C 129.000 71.779,129.112 71.667,129.250 71.667 C 129.387 71.667,129.500 71.554,129.500 71.417 C 129.500 71.279,129.612 71.167,129.750 71.167 C 129.887 71.167,130.003 71.073,130.007 70.958 C 130.011 70.844,130.236 70.566,130.507 70.341 C 130.791 70.105,131.000 69.770,131.000 69.549 C 131.000 69.320,131.100 69.167,131.250 69.167 C 131.387 69.167,131.500 69.054,131.500 68.917 C 131.500 68.779,131.612 68.667,131.750 68.667 C 131.887 68.667,132.000 68.562,132.000 68.434 C 132.000 68.307,132.112 68.159,132.250 68.106 C 132.387 68.054,132.500 67.821,132.500 67.589 C 132.500 67.325,132.594 67.167,132.750 67.167 C 132.914 67.167,133.000 67.002,133.000 66.686 C 133.000 66.346,133.097 66.180,133.333 66.118 C 133.554 66.061,133.667 65.891,133.667 65.617 C 133.667 65.389,133.779 65.159,133.917 65.106 C 134.063 65.050,134.167 64.801,134.167 64.505 C 134.167 64.167,134.249 64.000,134.417 64.000 C 134.581 64.000,134.667 63.835,134.667 63.518 C 134.667 63.243,134.774 62.994,134.917 62.940 C 135.080 62.877,135.167 62.617,135.167 62.190 C 135.167 61.762,135.253 61.502,135.417 61.440 C 135.728 61.320,135.758 60.120,135.457 59.804 C 135.342 59.682,135.172 59.359,135.079 59.085 C 134.983 58.801,134.768 58.560,134.580 58.525 C 134.398 58.491,134.190 58.359,134.117 58.231 C 133.914 57.880,122.500 57.888,122.500 58.239 C 122.500 58.376,122.304 58.500,122.042 58.531 C 121.698 58.570,121.569 58.687,121.526 59.000 C 121.494 59.229,121.363 59.477,121.234 59.550 C 121.105 59.623,121.000 59.859,121.000 60.074 C 121.000 60.289,120.888 60.508,120.750 60.560 C 120.612 60.613,120.500 60.846,120.500 61.078 C 120.500 61.342,120.406 61.500,120.250 61.500 C 120.111 61.500,120.000 61.648,120.000 61.833 C 120.000 62.019,119.889 62.167,119.750 62.167 C 119.612 62.167,119.500 62.279,119.500 62.417 C 119.500 62.581,119.335 62.667,119.018 62.667 C 118.743 62.667,118.494 62.774,118.440 62.917 C 118.387 63.054,118.229 63.167,118.089 63.167 C 117.948 63.167,117.833 63.279,117.833 63.417 C 117.833 63.602,117.639 63.667,117.083 63.667 C 116.528 63.667,116.333 63.731,116.333 63.917 C 116.333 64.125,116.000 64.167,114.333 64.167 C 112.667 64.167,112.333 64.125,112.333 63.917 C 112.333 63.731,112.139 63.667,111.583 63.667 C 111.028 63.667,110.833 63.602,110.833 63.417 C 110.833 63.250,110.667 63.167,110.333 63.167 C 110.000 63.167,109.833 63.083,109.833 62.917 C 109.833 62.779,109.721 62.667,109.583 62.667 C 109.446 62.667,109.333 62.554,109.333 62.417 C 109.333 62.278,109.185 62.167,109.000 62.167 C 108.778 62.167,108.667 62.056,108.667 61.833 C 108.667 61.650,108.592 61.500,108.500 61.500 C 108.284 61.500,107.667 60.883,107.667 60.667 C 107.667 60.575,107.554 60.500,107.417 60.500 C 107.260 60.500,107.167 60.342,107.167 60.078 C 107.167 59.846,107.054 59.613,106.917 59.560 C 106.779 59.508,106.667 59.283,106.667 59.060 C 106.667 58.838,106.554 58.613,106.417 58.560 C 106.274 58.506,106.167 58.257,106.167 57.982 C 106.167 57.665,106.081 57.500,105.917 57.500 C 105.731 57.500,105.667 57.306,105.667 56.750 C 105.667 56.194,105.602 56.000,105.417 56.000 C 105.217 56.000,105.167 55.750,105.167 54.750 C 105.167 53.750,105.117 53.500,104.917 53.500 C 104.750 53.500,104.667 53.333,104.667 53.000 C 104.667 52.667,104.750 52.500,104.917 52.500 C 105.054 52.500,105.167 52.425,105.167 52.333 C 105.167 51.469,104.596 51.500,120.582 51.500 C 135.150 51.500,135.333 51.496,135.539 51.167 C 135.653 50.983,135.841 50.833,135.957 50.833 C 136.072 50.833,136.167 50.721,136.167 50.583 C 136.167 50.446,136.279 50.333,136.417 50.333 C 136.794 50.333,136.794 40.538,136.417 40.394 C 136.220 40.318,136.167 39.979,136.167 38.816 C 136.167 37.609,136.120 37.333,135.917 37.333 C 135.719 37.333,135.667 37.095,135.667 36.187 C 135.667 35.372,135.595 34.981,135.417 34.833 C 135.272 34.714,135.167 34.350,135.167 33.974 C 135.167 33.549,135.080 33.290,134.917 33.227 C 134.754 33.165,134.667 32.906,134.667 32.490 C 134.667 32.130,134.568 31.792,134.442 31.717 C 134.318 31.643,134.170 31.284,134.113 30.918 C 134.055 30.552,133.931 30.227,133.837 30.196 C 133.743 30.164,133.667 29.951,133.667 29.721 C 133.667 29.442,133.555 29.273,133.333 29.215 C 133.097 29.153,133.000 28.988,133.000 28.647 C 133.000 28.331,132.914 28.167,132.750 28.167 C 132.612 28.167,132.500 28.054,132.500 27.917 C 132.500 27.779,132.387 27.667,132.250 27.667 C 132.083 27.667,132.000 27.500,132.000 27.167 C 132.000 26.833,131.917 26.667,131.750 26.667 C 131.583 26.667,131.500 26.500,131.500 26.167 C 131.500 25.833,131.417 25.667,131.250 25.667 C 131.112 25.667,131.000 25.554,131.000 25.417 C 131.000 25.279,130.887 25.167,130.750 25.167 C 130.612 25.167,130.500 25.054,130.500 24.917 C 130.500 24.779,130.387 24.667,130.250 24.667 C 130.112 24.667,130.000 24.554,130.000 24.417 C 130.000 24.279,129.887 24.167,129.750 24.167 C 129.612 24.167,129.500 24.054,129.500 23.917 C 129.500 23.779,129.387 23.667,129.250 23.667 C 129.111 23.667,129.000 23.519,129.000 23.333 C 129.000 23.148,128.889 23.000,128.750 23.000 C 128.612 23.000,128.500 22.887,128.500 22.750 C 128.500 22.613,128.406 22.497,128.292 22.493 C 128.177 22.489,127.899 22.264,127.674 21.993 C 127.439 21.709,127.104 21.500,126.883 21.500 C 126.654 21.500,126.500 21.400,126.500 21.250 C 126.500 21.112,126.396 21.000,126.268 21.000 C 126.140 21.000,125.992 20.887,125.940 20.750 C 125.887 20.612,125.654 20.500,125.422 20.500 C 125.158 20.500,125.000 20.406,125.000 20.250 C 125.000 20.083,124.833 20.000,124.500 20.000 C 124.167 20.000,124.000 19.917,124.000 19.750 C 124.000 19.577,123.826 19.500,123.434 19.500 C 123.086 19.500,122.832 19.404,122.773 19.250 C 122.710 19.087,122.451 19.000,122.023 19.000 C 121.595 19.000,121.336 18.913,121.273 18.750 C 121.204 18.570,120.923 18.500,120.273 18.500 C 119.623 18.500,119.342 18.430,119.273 18.250 C 119.191 18.035,118.457 18.000,114.083 18.000 C 109.709 18.000,108.976 18.035,108.894 18.250 M161.500 18.250 C 161.500 18.449,161.259 18.500,160.328 18.500 C 159.440 18.500,159.133 18.561,159.060 18.750 C 158.998 18.913,158.738 19.000,158.310 19.000 C 157.883 19.000,157.623 19.087,157.560 19.250 C 157.506 19.393,157.257 19.500,156.982 19.500 C 156.665 19.500,156.500 19.585,156.500 19.750 C 156.500 19.917,156.333 20.000,156.000 20.000 C 155.667 20.000,155.500 20.083,155.500 20.250 C 155.500 20.406,155.342 20.500,155.078 20.500 C 154.828 20.500,154.455 20.705,154.167 21.000 C 153.898 21.275,153.565 21.500,153.428 21.500 C 153.291 21.500,152.948 21.725,152.667 22.000 C 152.385 22.275,152.083 22.500,151.994 22.500 C 151.906 22.500,151.833 22.613,151.833 22.750 C 151.833 22.887,151.721 23.000,151.583 23.000 C 151.444 23.000,151.333 23.148,151.333 23.333 C 151.333 23.519,151.222 23.667,151.083 23.667 C 150.946 23.667,150.833 23.779,150.833 23.917 C 150.833 24.054,150.721 24.167,150.583 24.167 C 150.446 24.167,150.333 24.279,150.333 24.417 C 150.333 24.554,150.221 24.667,150.083 24.667 C 149.946 24.667,149.833 24.779,149.833 24.917 C 149.833 25.054,149.721 25.167,149.583 25.167 C 149.446 25.167,149.333 25.279,149.333 25.417 C 149.333 25.554,149.221 25.667,149.083 25.667 C 148.946 25.667,148.833 25.779,148.833 25.917 C 148.833 26.054,148.721 26.167,148.583 26.167 C 148.417 26.167,148.333 26.333,148.333 26.667 C 148.333 27.000,148.250 27.167,148.083 27.167 C 147.946 27.167,147.833 27.279,147.833 27.417 C 147.833 27.554,147.721 27.667,147.583 27.667 C 147.417 27.667,147.333 27.833,147.333 28.167 C 147.333 28.500,147.250 28.667,147.083 28.667 C 146.917 28.667,146.833 28.833,146.833 29.167 C 146.833 29.500,146.750 29.667,146.583 29.667 C 146.417 29.667,146.333 29.833,146.333 30.167 C 146.333 30.500,146.250 30.667,146.083 30.667 C 145.917 30.667,145.833 30.833,145.833 31.167 C 145.833 31.500,145.750 31.667,145.583 31.667 C 145.398 31.667,145.333 31.861,145.333 32.417 C 145.333 32.972,145.269 33.167,145.083 33.167 C 144.899 33.167,144.833 33.359,144.833 33.899 C 144.833 34.396,144.753 34.662,144.583 34.727 C 144.412 34.793,144.333 35.061,144.333 35.578 C 144.333 36.138,144.269 36.333,144.083 36.333 C 143.883 36.333,143.833 36.583,143.833 37.583 C 143.833 38.583,143.783 38.833,143.583 38.833 C 143.377 38.833,143.333 39.139,143.333 40.583 C 143.333 41.962,143.284 42.333,143.103 42.333 C 142.511 42.333,142.410 53.297,143.000 53.452 C 143.306 53.532,143.333 53.679,143.333 55.269 C 143.333 56.697,143.377 57.000,143.583 57.000 C 143.778 57.000,143.833 57.222,143.833 58.000 C 143.833 58.778,143.889 59.000,144.083 59.000 C 144.278 59.000,144.333 59.222,144.333 60.000 C 144.333 60.778,144.389 61.000,144.583 61.000 C 144.769 61.000,144.833 61.194,144.833 61.750 C 144.833 62.306,144.898 62.500,145.083 62.500 C 145.250 62.500,145.333 62.667,145.333 63.000 C 145.333 63.333,145.417 63.500,145.583 63.500 C 145.769 63.500,145.833 63.694,145.833 64.250 C 145.833 64.806,145.898 65.000,146.083 65.000 C 146.222 65.000,146.333 65.148,146.333 65.333 C 146.333 65.519,146.444 65.667,146.583 65.667 C 146.750 65.667,146.833 65.833,146.833 66.167 C 146.833 66.500,146.917 66.667,147.083 66.667 C 147.250 66.667,147.333 66.833,147.333 67.167 C 147.333 67.500,147.417 67.667,147.583 67.667 C 147.721 67.667,147.833 67.779,147.833 67.917 C 147.833 68.054,147.946 68.167,148.083 68.167 C 148.250 68.167,148.333 68.333,148.333 68.667 C 148.333 69.000,148.417 69.167,148.583 69.167 C 148.721 69.167,148.833 69.279,148.833 69.417 C 148.833 69.554,148.946 69.667,149.083 69.667 C 149.221 69.667,149.333 69.779,149.333 69.917 C 149.333 70.054,149.446 70.167,149.583 70.167 C 149.721 70.167,149.833 70.279,149.833 70.417 C 149.833 70.554,149.946 70.667,150.083 70.667 C 150.221 70.667,150.333 70.779,150.333 70.917 C 150.333 71.054,150.446 71.167,150.583 71.167 C 150.721 71.167,150.833 71.279,150.833 71.417 C 150.833 71.554,150.946 71.667,151.083 71.667 C 151.221 71.667,151.333 71.779,151.333 71.917 C 151.333 72.054,151.446 72.167,151.583 72.167 C 151.721 72.167,151.833 72.279,151.833 72.417 C 151.833 72.554,151.946 72.667,152.083 72.667 C 152.221 72.667,152.333 72.779,152.333 72.917 C 152.333 73.054,152.438 73.167,152.566 73.167 C 152.693 73.167,152.841 73.279,152.894 73.417 C 152.946 73.554,153.179 73.667,153.411 73.667 C 153.675 73.667,153.833 73.760,153.833 73.917 C 153.833 74.056,153.981 74.167,154.167 74.167 C 154.352 74.167,154.500 74.278,154.500 74.417 C 154.500 74.583,154.667 74.667,155.000 74.667 C 155.333 74.667,155.500 74.750,155.500 74.917 C 155.500 75.083,155.667 75.167,156.000 75.167 C 156.333 75.167,156.500 75.250,156.500 75.417 C 156.500 75.602,156.694 75.667,157.250 75.667 C 157.806 75.667,158.000 75.731,158.000 75.917 C 158.000 76.102,158.194 76.167,158.750 76.167 C 159.306 76.167,159.500 76.231,159.500 76.417 C 159.500 76.620,159.778 76.667,161.000 76.667 C 161.889 76.667,162.500 76.735,162.500 76.833 C 162.500 76.925,162.612 77.000,162.750 77.000 C 162.887 77.000,163.000 76.925,163.000 76.833 C 163.000 76.742,163.150 76.667,163.333 76.667 C 163.517 76.667,163.667 76.742,163.667 76.833 C 163.667 76.936,164.500 77.000,165.833 77.000 C 167.167 77.000,168.000 76.936,168.000 76.833 C 168.000 76.742,168.150 76.667,168.333 76.667 C 168.517 76.667,168.667 76.742,168.667 76.833 C 168.667 76.925,168.854 77.000,169.083 77.000 C 169.313 77.000,169.500 76.925,169.500 76.833 C 169.500 76.734,170.139 76.667,171.083 76.667 C 172.380 76.667,172.667 76.621,172.667 76.417 C 172.667 76.231,172.861 76.167,173.417 76.167 C 173.972 76.167,174.167 76.102,174.167 75.917 C 174.167 75.731,174.361 75.667,174.917 75.667 C 175.472 75.667,175.667 75.602,175.667 75.417 C 175.667 75.250,175.833 75.167,176.167 75.167 C 176.500 75.167,176.667 75.083,176.667 74.917 C 176.667 74.750,176.833 74.667,177.167 74.667 C 177.500 74.667,177.667 74.583,177.667 74.417 C 177.667 74.250,177.833 74.167,178.167 74.167 C 178.500 74.167,178.667 74.083,178.667 73.917 C 178.667 73.779,178.779 73.667,178.917 73.667 C 179.054 73.667,179.167 73.554,179.167 73.417 C 179.167 73.250,179.333 73.167,179.667 73.167 C 180.000 73.167,180.167 73.083,180.167 72.917 C 180.167 72.779,180.279 72.667,180.417 72.667 C 180.554 72.667,180.667 72.554,180.667 72.417 C 180.667 72.279,180.779 72.167,180.917 72.167 C 181.054 72.167,181.167 72.054,181.167 71.917 C 181.167 71.779,181.279 71.667,181.417 71.667 C 181.554 71.667,181.667 71.554,181.667 71.417 C 181.667 71.278,181.815 71.167,182.000 71.167 C 182.185 71.167,182.333 71.056,182.333 70.917 C 182.333 70.779,182.446 70.667,182.583 70.667 C 182.721 70.667,182.837 70.573,182.840 70.458 C 182.844 70.344,183.069 70.066,183.340 69.841 C 183.625 69.605,183.833 69.270,183.833 69.049 C 183.833 68.820,183.934 68.667,184.083 68.667 C 184.221 68.667,184.333 68.554,184.333 68.417 C 184.333 68.279,184.446 68.167,184.583 68.167 C 184.721 68.167,184.833 68.063,184.833 67.937 C 184.833 67.811,184.946 67.614,185.083 67.500 C 185.221 67.386,185.333 67.160,185.333 66.997 C 185.333 66.835,185.446 66.659,185.583 66.606 C 185.721 66.554,185.833 66.329,185.833 66.106 C 185.833 65.884,185.946 65.659,186.083 65.606 C 186.221 65.554,186.333 65.329,186.333 65.106 C 186.333 64.884,186.446 64.659,186.583 64.606 C 186.729 64.550,186.833 64.301,186.833 64.005 C 186.833 63.667,186.916 63.500,187.083 63.500 C 187.269 63.500,187.333 63.306,187.333 62.750 C 187.333 62.194,187.398 62.000,187.583 62.000 C 187.786 62.000,187.833 61.731,187.833 60.578 C 187.833 59.468,187.779 59.135,187.583 59.060 C 187.446 59.008,187.333 58.860,187.333 58.732 C 187.333 58.604,187.229 58.500,187.101 58.500 C 186.973 58.500,186.826 58.387,186.773 58.250 C 186.628 57.873,174.872 57.873,174.727 58.250 C 174.674 58.387,174.527 58.500,174.399 58.500 C 174.271 58.500,174.167 58.612,174.167 58.750 C 174.167 58.887,174.054 59.000,173.917 59.000 C 173.752 59.000,173.667 59.165,173.667 59.482 C 173.667 59.757,173.559 60.006,173.417 60.060 C 173.279 60.113,173.167 60.346,173.167 60.578 C 173.167 60.842,173.073 61.000,172.917 61.000 C 172.779 61.000,172.667 61.104,172.667 61.232 C 172.667 61.360,172.554 61.508,172.417 61.560 C 172.279 61.613,172.167 61.771,172.167 61.911 C 172.167 62.052,172.054 62.167,171.917 62.167 C 171.779 62.167,171.667 62.279,171.667 62.417 C 171.667 62.554,171.554 62.667,171.417 62.667 C 171.279 62.667,171.167 62.779,171.167 62.917 C 171.167 63.083,171.000 63.167,170.667 63.167 C 170.333 63.167,170.167 63.250,170.167 63.417 C 170.167 63.602,169.972 63.667,169.417 63.667 C 168.861 63.667,168.667 63.731,168.667 63.917 C 168.667 64.126,168.324 64.167,166.583 64.167 C 164.843 64.167,164.500 64.126,164.500 63.917 C 164.500 63.731,164.306 63.667,163.750 63.667 C 163.194 63.667,163.000 63.602,163.000 63.417 C 163.000 63.279,162.896 63.167,162.768 63.167 C 162.640 63.167,162.492 63.054,162.440 62.917 C 162.387 62.779,162.154 62.667,161.922 62.667 C 161.658 62.667,161.500 62.573,161.500 62.417 C 161.500 62.279,161.387 62.167,161.250 62.167 C 161.112 62.167,161.000 62.052,161.000 61.911 C 161.000 61.771,160.887 61.613,160.750 61.560 C 160.612 61.508,160.500 61.360,160.500 61.232 C 160.500 61.104,160.387 61.000,160.250 61.000 C 160.110 61.000,160.000 60.851,160.000 60.661 C 160.000 60.475,159.887 60.280,159.750 60.227 C 159.612 60.174,159.500 60.024,159.500 59.894 C 159.500 59.763,159.387 59.613,159.250 59.560 C 159.112 59.508,159.000 59.283,159.000 59.060 C 159.000 58.838,158.887 58.613,158.750 58.560 C 158.587 58.498,158.500 58.238,158.500 57.810 C 158.500 57.383,158.413 57.123,158.250 57.060 C 158.092 57.000,157.999 56.742,157.998 56.357 C 157.995 55.504,157.834 55.000,157.564 55.000 C 157.385 55.000,157.333 54.666,157.333 53.500 C 157.333 52.264,157.378 52.000,157.589 52.000 C 157.729 52.000,157.887 51.887,157.940 51.750 C 158.024 51.530,159.837 51.500,172.867 51.500 C 187.558 51.500,187.699 51.497,187.785 51.167 C 187.833 50.983,187.976 50.833,188.103 50.833 C 188.230 50.833,188.333 50.721,188.333 50.583 C 188.333 50.446,188.446 50.333,188.583 50.333 C 188.801 50.333,188.833 49.611,188.833 44.833 C 188.833 40.056,188.801 39.333,188.583 39.333 C 188.380 39.333,188.333 39.056,188.333 37.833 C 188.333 36.611,188.287 36.333,188.083 36.333 C 187.889 36.333,187.833 36.111,187.833 35.328 C 187.833 34.588,187.767 34.298,187.583 34.227 C 187.414 34.162,187.333 33.896,187.333 33.399 C 187.333 32.859,187.268 32.667,187.083 32.667 C 186.898 32.667,186.833 32.472,186.833 31.917 C 186.833 31.361,186.769 31.167,186.583 31.167 C 186.417 31.167,186.333 31.000,186.333 30.667 C 186.333 30.333,186.250 30.167,186.083 30.167 C 185.917 30.167,185.833 30.000,185.833 29.667 C 185.833 29.333,185.750 29.167,185.583 29.167 C 185.417 29.167,185.333 29.000,185.333 28.667 C 185.333 28.333,185.250 28.167,185.083 28.167 C 184.917 28.167,184.833 28.000,184.833 27.667 C 184.833 27.333,184.750 27.167,184.583 27.167 C 184.434 27.167,184.333 27.013,184.333 26.784 C 184.333 26.563,184.125 26.228,183.840 25.992 C 183.569 25.767,183.344 25.490,183.340 25.375 C 183.337 25.260,183.221 25.167,183.083 25.167 C 182.946 25.167,182.833 25.054,182.833 24.917 C 182.833 24.779,182.730 24.667,182.604 24.667 C 182.478 24.667,182.330 24.442,182.275 24.167 C 182.216 23.873,182.070 23.667,181.921 23.667 C 181.781 23.667,181.667 23.588,181.667 23.492 C 181.667 23.211,180.813 22.500,180.476 22.500 C 180.306 22.500,180.167 22.387,180.167 22.250 C 180.167 22.113,180.054 22.000,179.917 22.000 C 179.779 22.000,179.667 21.887,179.667 21.750 C 179.667 21.613,179.554 21.500,179.417 21.500 C 179.279 21.500,179.167 21.431,179.167 21.347 C 179.167 21.262,178.942 21.144,178.667 21.083 C 178.392 21.023,178.167 20.867,178.167 20.737 C 178.167 20.585,177.988 20.500,177.667 20.500 C 177.333 20.500,177.167 20.417,177.167 20.250 C 177.167 20.083,177.000 20.000,176.667 20.000 C 176.333 20.000,176.167 19.917,176.167 19.750 C 176.167 19.583,176.000 19.500,175.667 19.500 C 175.333 19.500,175.167 19.417,175.167 19.250 C 175.167 19.066,174.974 19.000,174.434 19.000 C 173.937 19.000,173.672 18.920,173.606 18.750 C 173.537 18.570,173.256 18.500,172.606 18.500 C 171.957 18.500,171.675 18.430,171.606 18.250 C 171.524 18.035,170.801 18.000,166.505 18.000 C 162.167 18.000,161.500 18.033,161.500 18.250 M220.333 18.250 C 220.333 18.442,220.120 18.500,219.411 18.500 C 218.746 18.500,218.463 18.569,218.394 18.750 C 218.339 18.893,218.090 19.000,217.816 19.000 C 217.498 19.000,217.333 19.085,217.333 19.250 C 217.333 19.417,217.167 19.500,216.833 19.500 C 216.500 19.500,216.333 19.583,216.333 19.750 C 216.333 19.906,216.175 20.000,215.911 20.000 C 215.679 20.000,215.446 20.112,215.394 20.250 C 215.341 20.387,215.219 20.500,215.123 20.500 C 215.028 20.500,214.510 20.950,213.974 21.500 C 212.834 22.668,211.667 22.963,211.667 22.083 C 211.667 21.824,211.572 21.667,211.417 21.667 C 211.228 21.667,211.167 21.463,211.167 20.833 C 211.167 20.204,211.106 20.000,210.917 20.000 C 210.779 20.000,210.667 19.887,210.667 19.750 C 210.667 19.612,210.562 19.500,210.434 19.500 C 210.307 19.500,210.159 19.387,210.106 19.250 C 210.024 19.034,209.217 19.000,204.255 19.000 C 199.251 19.000,198.500 19.033,198.500 19.250 C 198.500 19.387,198.387 19.500,198.250 19.500 C 198.112 19.500,198.000 19.612,198.000 19.750 C 198.000 19.887,197.887 20.000,197.750 20.000 C 197.529 20.000,197.500 23.167,197.500 47.505 C 197.500 71.801,197.529 75.022,197.750 75.106 C 197.887 75.159,198.000 75.307,198.000 75.434 C 198.000 75.629,199.031 75.667,204.333 75.667 C 209.852 75.667,210.667 75.635,210.667 75.417 C 210.667 75.279,210.779 75.167,210.917 75.167 C 211.054 75.167,211.167 75.054,211.167 74.917 C 211.167 74.779,211.279 74.667,211.417 74.667 C 211.637 74.667,211.667 72.595,211.667 57.018 C 211.667 41.484,211.697 39.358,211.917 39.273 C 212.108 39.200,212.167 38.884,212.167 37.922 C 212.167 36.917,212.217 36.667,212.417 36.667 C 212.583 36.667,212.667 36.500,212.667 36.167 C 212.667 35.833,212.750 35.667,212.917 35.667 C 213.083 35.667,213.167 35.500,213.167 35.167 C 213.167 34.833,213.250 34.667,213.417 34.667 C 213.583 34.667,213.667 34.500,213.667 34.167 C 213.667 33.833,213.750 33.667,213.917 33.667 C 214.054 33.667,214.167 33.554,214.167 33.417 C 214.167 33.279,214.279 33.167,214.417 33.167 C 214.554 33.167,214.667 33.054,214.667 32.917 C 214.667 32.779,214.779 32.667,214.917 32.667 C 215.054 32.667,215.167 32.554,215.167 32.417 C 215.167 32.250,215.333 32.167,215.667 32.167 C 216.000 32.167,216.167 32.083,216.167 31.917 C 216.167 31.722,216.389 31.667,217.172 31.667 C 217.912 31.667,218.202 31.601,218.273 31.417 C 218.338 31.247,218.604 31.167,219.101 31.167 C 219.641 31.167,219.833 31.232,219.833 31.417 C 219.833 31.601,220.026 31.667,220.566 31.667 C 221.063 31.667,221.328 31.747,221.394 31.917 C 221.446 32.054,221.679 32.167,221.911 32.167 C 222.175 32.167,222.333 32.260,222.333 32.417 C 222.333 32.554,222.408 32.667,222.500 32.667 C 222.716 32.667,223.333 33.284,223.333 33.500 C 223.333 33.592,223.446 33.667,223.583 33.667 C 223.721 33.667,223.833 33.779,223.833 33.917 C 223.833 34.054,223.946 34.167,224.083 34.167 C 224.264 34.167,224.333 34.352,224.333 34.839 C 224.333 35.282,224.418 35.543,224.583 35.606 C 224.763 35.675,224.833 35.957,224.833 36.606 C 224.833 37.256,224.904 37.537,225.083 37.606 C 225.303 37.691,225.333 39.910,225.333 56.184 C 225.333 71.755,225.369 74.667,225.563 74.667 C 225.689 74.667,225.837 74.892,225.892 75.167 L 225.992 75.667 232.246 75.667 C 237.694 75.667,238.500 75.634,238.500 75.417 C 238.500 75.279,238.612 75.167,238.750 75.167 C 238.887 75.167,239.000 75.054,239.000 74.917 C 239.000 74.779,239.112 74.667,239.250 74.667 C 239.471 74.667,239.500 72.583,239.500 56.917 C 239.500 41.250,239.529 39.167,239.750 39.167 C 239.950 39.167,240.000 38.917,240.000 37.917 C 240.000 36.917,240.050 36.667,240.250 36.667 C 240.435 36.667,240.500 36.472,240.500 35.917 C 240.500 35.361,240.565 35.167,240.750 35.167 C 240.917 35.167,241.000 35.000,241.000 34.667 C 241.000 34.333,241.083 34.167,241.250 34.167 C 241.387 34.167,241.500 34.054,241.500 33.917 C 241.500 33.779,241.612 33.667,241.750 33.667 C 241.887 33.667,242.000 33.554,242.000 33.417 C 242.000 33.279,242.097 33.167,242.216 33.167 C 242.335 33.167,242.616 32.945,242.841 32.674 C 243.066 32.403,243.419 32.178,243.625 32.174 C 243.844 32.170,244.000 32.063,244.000 31.917 C 244.000 31.731,244.195 31.667,244.755 31.667 C 245.273 31.667,245.541 31.588,245.606 31.417 C 245.746 31.052,248.167 31.052,248.167 31.417 C 248.167 31.581,248.331 31.667,248.649 31.667 C 248.924 31.667,249.172 31.774,249.227 31.917 C 249.280 32.054,249.472 32.167,249.653 32.167 C 250.070 32.167,251.629 33.708,251.766 34.256 C 251.823 34.482,251.930 34.667,252.005 34.667 C 252.079 34.667,252.190 34.892,252.250 35.167 C 252.310 35.442,252.466 35.667,252.597 35.667 C 252.766 35.667,252.833 35.880,252.833 36.417 C 252.833 36.972,252.898 37.167,253.083 37.167 C 253.304 37.167,253.333 39.361,253.333 55.917 C 253.333 72.472,253.363 74.667,253.583 74.667 C 253.721 74.667,253.833 74.779,253.833 74.917 C 253.833 75.054,253.946 75.167,254.083 75.167 C 254.221 75.167,254.333 75.279,254.333 75.417 C 254.333 75.634,255.111 75.667,260.333 75.667 C 265.556 75.667,266.333 75.634,266.333 75.417 C 266.333 75.278,266.481 75.167,266.667 75.167 C 266.850 75.167,267.000 75.062,267.000 74.934 C 267.000 74.807,267.112 74.659,267.250 74.606 C 267.470 74.522,267.500 72.152,267.500 54.667 C 267.500 37.181,267.470 34.811,267.250 34.727 C 267.051 34.651,267.000 34.292,267.000 32.967 C 267.000 31.442,266.972 31.295,266.667 31.215 C 266.381 31.140,266.333 30.988,266.333 30.147 C 266.333 29.387,266.277 29.167,266.083 29.167 C 265.898 29.167,265.833 28.972,265.833 28.417 C 265.833 27.861,265.769 27.667,265.583 27.667 C 265.398 27.667,265.333 27.472,265.333 26.917 C 265.333 26.361,265.269 26.167,265.083 26.167 C 264.917 26.167,264.833 26.000,264.833 25.667 C 264.833 25.333,264.750 25.167,264.583 25.167 C 264.446 25.167,264.333 25.054,264.333 24.917 C 264.333 24.779,264.221 24.667,264.083 24.667 C 263.917 24.667,263.833 24.500,263.833 24.167 C 263.833 23.833,263.750 23.667,263.583 23.667 C 263.444 23.667,263.333 23.519,263.333 23.333 C 263.333 23.148,263.222 23.000,263.083 23.000 C 262.946 23.000,262.833 22.887,262.833 22.750 C 262.833 22.613,262.721 22.500,262.583 22.500 C 262.446 22.500,262.333 22.387,262.333 22.250 C 262.333 22.113,262.221 22.000,262.083 22.000 C 261.946 22.000,261.833 21.887,261.833 21.750 C 261.833 21.613,261.721 21.500,261.583 21.500 C 261.446 21.500,261.333 21.387,261.333 21.250 C 261.333 21.112,261.221 21.000,261.083 21.000 C 260.946 21.000,260.833 20.887,260.833 20.750 C 260.833 20.612,260.721 20.500,260.583 20.500 C 260.446 20.500,260.333 20.387,260.333 20.250 C 260.333 20.083,260.167 20.000,259.833 20.000 C 259.500 20.000,259.333 19.917,259.333 19.750 C 259.333 19.612,259.229 19.500,259.101 19.500 C 258.973 19.500,258.826 19.387,258.773 19.250 C 258.710 19.085,258.449 19.000,258.005 19.000 C 257.519 19.000,257.333 18.931,257.333 18.750 C 257.333 18.566,257.141 18.500,256.601 18.500 C 256.104 18.500,255.838 18.420,255.773 18.250 C 255.629 17.874,247.167 17.874,247.167 18.250 C 247.167 18.444,246.944 18.500,246.167 18.500 C 245.389 18.500,245.167 18.556,245.167 18.750 C 245.167 18.917,245.000 19.000,244.667 19.000 C 244.333 19.000,244.167 19.083,244.167 19.250 C 244.167 19.431,243.981 19.500,243.495 19.500 C 243.051 19.500,242.790 19.585,242.727 19.750 C 242.674 19.887,242.527 20.000,242.399 20.000 C 242.271 20.000,242.167 20.112,242.167 20.250 C 242.167 20.406,242.009 20.500,241.745 20.500 C 241.513 20.500,241.280 20.612,241.227 20.750 C 241.174 20.887,241.027 21.000,240.899 21.000 C 240.771 21.000,240.667 21.112,240.667 21.250 C 240.667 21.387,240.584 21.500,240.482 21.500 C 240.241 21.500,238.500 23.241,238.500 23.482 C 238.500 23.584,238.387 23.667,238.250 23.667 C 238.112 23.667,238.000 23.779,238.000 23.917 C 238.000 24.054,237.887 24.167,237.750 24.167 C 237.612 24.167,237.500 24.279,237.500 24.417 C 237.500 24.583,237.333 24.667,237.000 24.667 C 236.667 24.667,236.500 24.583,236.500 24.417 C 236.500 24.279,236.387 24.167,236.250 24.167 C 236.112 24.167,236.000 24.054,236.000 23.917 C 236.000 23.779,235.887 23.667,235.750 23.667 C 235.590 23.667,235.500 23.506,235.500 23.219 C 235.500 22.698,232.847 20.000,232.334 20.000 C 232.170 20.000,231.992 19.887,231.940 19.750 C 231.887 19.612,231.662 19.500,231.440 19.500 C 231.217 19.500,230.992 19.387,230.940 19.250 C 230.884 19.104,230.634 19.000,230.339 19.000 C 230.001 19.000,229.833 18.917,229.833 18.750 C 229.833 18.565,229.639 18.500,229.083 18.500 C 228.528 18.500,228.333 18.435,228.333 18.250 C 228.333 18.035,227.778 18.000,224.333 18.000 C 220.889 18.000,220.333 18.035,220.333 18.250 M116.394 30.417 C 116.457 30.582,116.718 30.667,117.161 30.667 C 117.648 30.667,117.833 30.736,117.833 30.917 C 117.833 31.054,117.938 31.167,118.066 31.167 C 118.193 31.167,118.341 31.279,118.394 31.417 C 118.446 31.554,118.604 31.667,118.745 31.667 C 118.885 31.667,119.000 31.779,119.000 31.917 C 119.000 32.054,119.112 32.167,119.250 32.167 C 119.388 32.167,119.500 32.279,119.500 32.417 C 119.500 32.554,119.612 32.667,119.750 32.667 C 119.888 32.667,120.000 32.779,120.000 32.917 C 120.000 33.054,120.112 33.167,120.250 33.167 C 120.417 33.167,120.500 33.333,120.500 33.667 C 120.500 34.000,120.583 34.167,120.750 34.167 C 120.917 34.167,121.000 34.333,121.000 34.667 C 121.000 35.000,121.083 35.167,121.250 35.167 C 121.435 35.167,121.500 35.361,121.500 35.917 C 121.500 36.472,121.565 36.667,121.750 36.667 C 121.957 36.667,122.000 36.981,122.000 38.500 C 122.000 40.019,121.957 40.333,121.750 40.333 C 121.612 40.333,121.500 40.446,121.500 40.583 C 121.500 40.802,120.537 40.833,113.833 40.833 C 107.130 40.833,106.167 40.802,106.167 40.583 C 106.167 40.446,106.054 40.333,105.917 40.333 C 105.779 40.333,105.667 40.221,105.667 40.083 C 105.667 39.946,105.554 39.833,105.417 39.833 C 105.242 39.833,105.167 39.657,105.167 39.250 C 105.167 38.843,105.242 38.667,105.417 38.667 C 105.611 38.667,105.667 38.444,105.667 37.667 C 105.667 36.889,105.722 36.667,105.917 36.667 C 106.102 36.667,106.167 36.472,106.167 35.917 C 106.167 35.361,106.231 35.167,106.417 35.167 C 106.583 35.167,106.667 35.000,106.667 34.667 C 106.667 34.333,106.750 34.167,106.917 34.167 C 107.083 34.167,107.167 34.000,107.167 33.667 C 107.167 33.333,107.250 33.167,107.417 33.167 C 107.554 33.167,107.667 33.054,107.667 32.917 C 107.667 32.779,107.779 32.667,107.917 32.667 C 108.054 32.667,108.167 32.554,108.167 32.417 C 108.167 32.279,108.279 32.167,108.417 32.167 C 108.554 32.167,108.667 32.054,108.667 31.917 C 108.667 31.778,108.815 31.667,109.000 31.667 C 109.185 31.667,109.333 31.556,109.333 31.417 C 109.333 31.260,109.491 31.167,109.755 31.167 C 109.987 31.167,110.220 31.054,110.273 30.917 C 110.326 30.779,110.551 30.667,110.773 30.667 C 110.995 30.667,111.220 30.554,111.273 30.417 C 111.352 30.210,111.797 30.167,113.833 30.167 C 115.870 30.167,116.314 30.210,116.394 30.417 M169.167 30.417 C 169.167 30.583,169.333 30.667,169.667 30.667 C 170.000 30.667,170.167 30.750,170.167 30.917 C 170.167 31.083,170.333 31.167,170.667 31.167 C 171.000 31.167,171.167 31.250,171.167 31.417 C 171.167 31.554,171.279 31.667,171.417 31.667 C 171.554 31.667,171.667 31.779,171.667 31.917 C 171.667 32.054,171.779 32.167,171.917 32.167 C 172.083 32.167,172.167 32.333,172.167 32.667 C 172.167 33.000,172.250 33.167,172.417 33.167 C 172.554 33.167,172.667 33.279,172.667 33.417 C 172.667 33.554,172.779 33.667,172.917 33.667 C 173.083 33.667,173.167 33.833,173.167 34.167 C 173.167 34.500,173.250 34.667,173.417 34.667 C 173.602 34.667,173.667 34.861,173.667 35.417 C 173.667 35.972,173.731 36.167,173.917 36.167 C 174.111 36.167,174.167 36.389,174.167 37.167 C 174.167 37.944,174.222 38.167,174.417 38.167 C 174.606 38.167,174.667 38.370,174.667 39.000 C 174.667 39.630,174.606 39.833,174.417 39.833 C 174.279 39.833,174.167 39.946,174.167 40.083 C 174.167 40.221,174.054 40.333,173.917 40.333 C 173.779 40.333,173.667 40.446,173.667 40.583 C 173.667 40.802,172.713 40.833,166.083 40.833 C 159.454 40.833,158.500 40.802,158.500 40.583 C 158.500 40.446,158.387 40.333,158.250 40.333 C 158.046 40.333,158.000 40.048,158.000 38.768 C 158.000 37.530,158.052 37.182,158.250 37.106 C 158.413 37.044,158.500 36.784,158.500 36.356 C 158.500 35.929,158.587 35.669,158.750 35.606 C 158.887 35.554,159.000 35.321,159.000 35.089 C 159.000 34.857,159.069 34.667,159.153 34.667 C 159.238 34.667,159.356 34.442,159.417 34.167 C 159.477 33.892,159.633 33.667,159.763 33.667 C 159.893 33.667,160.000 33.562,160.000 33.434 C 160.000 33.307,160.112 33.159,160.250 33.106 C 160.387 33.054,160.500 32.821,160.500 32.589 C 160.500 32.325,160.594 32.167,160.750 32.167 C 160.887 32.167,161.000 32.054,161.000 31.917 C 161.000 31.760,161.158 31.667,161.422 31.667 C 161.654 31.667,161.887 31.554,161.940 31.417 C 161.992 31.279,162.140 31.167,162.268 31.167 C 162.396 31.167,162.500 31.054,162.500 30.917 C 162.500 30.750,162.667 30.667,163.000 30.667 C 163.333 30.667,163.500 30.583,163.500 30.417 C 163.500 30.204,163.926 30.167,166.333 30.167 C 168.741 30.167,169.167 30.204,169.167 30.417 M387.619 52.125 C 387.581 52.377,387.550 52.171,387.550 51.667 C 387.550 51.163,387.581 50.956,387.619 51.208 C 387.658 51.460,387.658 51.873,387.619 52.125 M306.292 63.615 C 306.131 63.657,305.869 63.657,305.708 63.615 C 305.548 63.573,305.679 63.539,306.000 63.539 C 306.321 63.539,306.452 63.573,306.292 63.615 M26.460 64.115 C 26.301 64.156,26.001 64.158,25.794 64.118 C 25.586 64.078,25.717 64.044,26.083 64.042 C 26.450 64.040,26.620 64.073,26.460 64.115 M74.625 76.282 C 74.465 76.323,74.202 76.323,74.042 76.282 C 73.881 76.240,74.012 76.205,74.333 76.205 C 74.654 76.205,74.785 76.240,74.625 76.282 M80.044 76.284 C 79.839 76.324,79.464 76.325,79.211 76.286 C 78.957 76.248,79.125 76.216,79.583 76.214 C 80.042 76.213,80.249 76.244,80.044 76.284 " stroke="none" fill="#04d4ac" fill-rule="evenodd"></path><path id="path1" d="M387.550 51.667 C 387.550 52.171,387.581 52.377,387.619 52.125 C 387.658 51.873,387.658 51.460,387.619 51.208 C 387.581 50.956,387.550 51.163,387.550 51.667 M305.708 63.615 C 305.869 63.657,306.131 63.657,306.292 63.615 C 306.452 63.573,306.321 63.539,306.000 63.539 C 305.679 63.539,305.548 63.573,305.708 63.615 M25.794 64.118 C 26.001 64.158,26.301 64.156,26.460 64.115 C 26.620 64.073,26.450 64.040,26.083 64.042 C 25.717 64.044,25.586 64.078,25.794 64.118 M74.042 76.282 C 74.202 76.323,74.465 76.323,74.625 76.282 C 74.785 76.240,74.654 76.205,74.333 76.205 C 74.012 76.205,73.881 76.240,74.042 76.282 M79.211 76.286 C 79.464 76.325,79.839 76.324,80.044 76.284 C 80.249 76.244,80.042 76.213,79.583 76.214 C 79.125 76.216,78.957 76.248,79.211 76.286 M110.833 76.833 C 110.833 76.925,110.946 77.000,111.083 77.000 C 111.221 77.000,111.333 76.925,111.333 76.833 C 111.333 76.742,111.221 76.667,111.083 76.667 C 110.946 76.667,110.833 76.742,110.833 76.833 M115.833 76.833 C 115.833 76.925,115.946 77.000,116.083 77.000 C 116.221 77.000,116.333 76.925,116.333 76.833 C 116.333 76.742,116.221 76.667,116.083 76.667 C 115.946 76.667,115.833 76.742,115.833 76.833 M163.000 76.833 C 163.000 76.925,163.150 77.000,163.333 77.000 C 163.517 77.000,163.667 76.925,163.667 76.833 C 163.667 76.742,163.517 76.667,163.333 76.667 C 163.150 76.667,163.000 76.742,163.000 76.833 M168.000 76.833 C 168.000 76.925,168.150 77.000,168.333 77.000 C 168.517 77.000,168.667 76.925,168.667 76.833 C 168.667 76.742,168.517 76.667,168.333 76.667 C 168.150 76.667,168.000 76.742,168.000 76.833 " stroke="none" fill="#08d4ac" fill-rule="evenodd"></path><path id="path2" d="M387.550 51.667 C 387.550 52.171,387.581 52.377,387.619 52.125 C 387.658 51.873,387.658 51.460,387.619 51.208 C 387.581 50.956,387.550 51.163,387.550 51.667 M305.708 63.615 C 305.869 63.657,306.131 63.657,306.292 63.615 C 306.452 63.573,306.321 63.539,306.000 63.539 C 305.679 63.539,305.548 63.573,305.708 63.615 M25.794 64.118 C 26.001 64.158,26.301 64.156,26.460 64.115 C 26.620 64.073,26.450 64.040,26.083 64.042 C 25.717 64.044,25.586 64.078,25.794 64.118 M74.042 76.282 C 74.202 76.323,74.465 76.323,74.625 76.282 C 74.785 76.240,74.654 76.205,74.333 76.205 C 74.012 76.205,73.881 76.240,74.042 76.282 M79.211 76.286 C 79.464 76.325,79.839 76.324,80.044 76.284 C 80.249 76.244,80.042 76.213,79.583 76.214 C 79.125 76.216,78.957 76.248,79.211 76.286 M110.833 76.833 C 110.833 76.925,110.946 77.000,111.083 77.000 C 111.221 77.000,111.333 76.925,111.333 76.833 C 111.333 76.742,111.221 76.667,111.083 76.667 C 110.946 76.667,110.833 76.742,110.833 76.833 M115.833 76.833 C 115.833 76.925,115.946 77.000,116.083 77.000 C 116.221 77.000,116.333 76.925,116.333 76.833 C 116.333 76.742,116.221 76.667,116.083 76.667 C 115.946 76.667,115.833 76.742,115.833 76.833 M163.000 76.833 C 163.000 76.925,163.150 77.000,163.333 77.000 C 163.517 77.000,163.667 76.925,163.667 76.833 C 163.667 76.742,163.517 76.667,163.333 76.667 C 163.150 76.667,163.000 76.742,163.000 76.833 M168.000 76.833 C 168.000 76.925,168.150 77.000,168.333 77.000 C 168.517 77.000,168.667 76.925,168.667 76.833 C 168.667 76.742,168.517 76.667,168.333 76.667 C 168.150 76.667,168.000 76.742,168.000 76.833 " stroke="none" fill="#08d4ac" fill-rule="evenodd"></path><path id="path3" d="M387.550 51.667 C 387.550 52.171,387.581 52.377,387.619 52.125 C 387.658 51.873,387.658 51.460,387.619 51.208 C 387.581 50.956,387.550 51.163,387.550 51.667 M305.708 63.615 C 305.869 63.657,306.131 63.657,306.292 63.615 C 306.452 63.573,306.321 63.539,306.000 63.539 C 305.679 63.539,305.548 63.573,305.708 63.615 M25.794 64.118 C 26.001 64.158,26.301 64.156,26.460 64.115 C 26.620 64.073,26.450 64.040,26.083 64.042 C 25.717 64.044,25.586 64.078,25.794 64.118 M74.042 76.282 C 74.202 76.323,74.465 76.323,74.625 76.282 C 74.785 76.240,74.654 76.205,74.333 76.205 C 74.012 76.205,73.881 76.240,74.042 76.282 M79.211 76.286 C 79.464 76.325,79.839 76.324,80.044 76.284 C 80.249 76.244,80.042 76.213,79.583 76.214 C 79.125 76.216,78.957 76.248,79.211 76.286 M110.833 76.833 C 110.833 76.925,110.946 77.000,111.083 77.000 C 111.221 77.000,111.333 76.925,111.333 76.833 C 111.333 76.742,111.221 76.667,111.083 76.667 C 110.946 76.667,110.833 76.742,110.833 76.833 M115.833 76.833 C 115.833 76.925,115.946 77.000,116.083 77.000 C 116.221 77.000,116.333 76.925,116.333 76.833 C 116.333 76.742,116.221 76.667,116.083 76.667 C 115.946 76.667,115.833 76.742,115.833 76.833 M163.000 76.833 C 163.000 76.925,163.150 77.000,163.333 77.000 C 163.517 77.000,163.667 76.925,163.667 76.833 C 163.667 76.742,163.517 76.667,163.333 76.667 C 163.150 76.667,163.000 76.742,163.000 76.833 M168.000 76.833 C 168.000 76.925,168.150 77.000,168.333 77.000 C 168.517 77.000,168.667 76.925,168.667 76.833 C 168.667 76.742,168.517 76.667,168.333 76.667 C 168.150 76.667,168.000 76.742,168.000 76.833 " stroke="none" fill="#08d4ac" fill-rule="evenodd"></path><path id="path4" d="M387.550 51.667 C 387.550 52.171,387.581 52.377,387.619 52.125 C 387.658 51.873,387.658 51.460,387.619 51.208 C 387.581 50.956,387.550 51.163,387.550 51.667 M305.708 63.615 C 305.869 63.657,306.131 63.657,306.292 63.615 C 306.452 63.573,306.321 63.539,306.000 63.539 C 305.679 63.539,305.548 63.573,305.708 63.615 M25.794 64.118 C 26.001 64.158,26.301 64.156,26.460 64.115 C 26.620 64.073,26.450 64.040,26.083 64.042 C 25.717 64.044,25.586 64.078,25.794 64.118 M74.042 76.282 C 74.202 76.323,74.465 76.323,74.625 76.282 C 74.785 76.240,74.654 76.205,74.333 76.205 C 74.012 76.205,73.881 76.240,74.042 76.282 M79.211 76.286 C 79.464 76.325,79.839 76.324,80.044 76.284 C 80.249 76.244,80.042 76.213,79.583 76.214 C 79.125 76.216,78.957 76.248,79.211 76.286 M110.833 76.833 C 110.833 76.925,110.946 77.000,111.083 77.000 C 111.221 77.000,111.333 76.925,111.333 76.833 C 111.333 76.742,111.221 76.667,111.083 76.667 C 110.946 76.667,110.833 76.742,110.833 76.833 M115.833 76.833 C 115.833 76.925,115.946 77.000,116.083 77.000 C 116.221 77.000,116.333 76.925,116.333 76.833 C 116.333 76.742,116.221 76.667,116.083 76.667 C 115.946 76.667,115.833 76.742,115.833 76.833 M163.000 76.833 C 163.000 76.925,163.150 77.000,163.333 77.000 C 163.517 77.000,163.667 76.925,163.667 76.833 C 163.667 76.742,163.517 76.667,163.333 76.667 C 163.150 76.667,163.000 76.742,163.000 76.833 M168.000 76.833 C 168.000 76.925,168.150 77.000,168.333 77.000 C 168.517 77.000,168.667 76.925,168.667 76.833 C 168.667 76.742,168.517 76.667,168.333 76.667 C 168.150 76.667,168.000 76.742,168.000 76.833 " stroke="none" fill="#08d4ac" fill-rule="evenodd"></path><path id="path5" d="M387.550 51.667 C 387.550 52.171,387.581 52.377,387.619 52.125 C 387.658 51.873,387.658 51.460,387.619 51.208 C 387.581 50.956,387.550 51.163,387.550 51.667 M305.708 63.615 C 305.869 63.657,306.131 63.657,306.292 63.615 C 306.452 63.573,306.321 63.539,306.000 63.539 C 305.679 63.539,305.548 63.573,305.708 63.615 M25.794 64.118 C 26.001 64.158,26.301 64.156,26.460 64.115 C 26.620 64.073,26.450 64.040,26.083 64.042 C 25.717 64.044,25.586 64.078,25.794 64.118 M74.042 76.282 C 74.202 76.323,74.465 76.323,74.625 76.282 C 74.785 76.240,74.654 76.205,74.333 76.205 C 74.012 76.205,73.881 76.240,74.042 76.282 M79.211 76.286 C 79.464 76.325,79.839 76.324,80.044 76.284 C 80.249 76.244,80.042 76.213,79.583 76.214 C 79.125 76.216,78.957 76.248,79.211 76.286 M110.833 76.833 C 110.833 76.925,110.946 77.000,111.083 77.000 C 111.221 77.000,111.333 76.925,111.333 76.833 C 111.333 76.742,111.221 76.667,111.083 76.667 C 110.946 76.667,110.833 76.742,110.833 76.833 M115.833 76.833 C 115.833 76.925,115.946 77.000,116.083 77.000 C 116.221 77.000,116.333 76.925,116.333 76.833 C 116.333 76.742,116.221 76.667,116.083 76.667 C 115.946 76.667,115.833 76.742,115.833 76.833 M163.000 76.833 C 163.000 76.925,163.150 77.000,163.333 77.000 C 163.517 77.000,163.667 76.925,163.667 76.833 C 163.667 76.742,163.517 76.667,163.333 76.667 C 163.150 76.667,163.000 76.742,163.000 76.833 M168.000 76.833 C 168.000 76.925,168.150 77.000,168.333 77.000 C 168.517 77.000,168.667 76.925,168.667 76.833 C 168.667 76.742,168.517 76.667,168.333 76.667 C 168.150 76.667,168.000 76.742,168.000 76.833 " stroke="none" fill="#08d4ac" fill-rule="evenodd"></path></g></svg>