<?xml version="1.0" encoding="utf-8"?>
<!-- Svg Vector Icons : http://www.onlinewebfonts.com/icon -->
<!DOCTYPE svg PUBLIC "-//W3C//DTD SVG 1.1//EN" "http://www.w3.org/Graphics/SVG/1.1/DTD/svg11.dtd">
<svg version="1.1" xmlns="http://www.w3.org/2000/svg" xmlns:xlink="http://www.w3.org/1999/xlink" x="0px" y="0px" viewBox="0 0 1000 1000" enable-background="new 0 0 1000 1000" xml:space="preserve">
<metadata> Svg Vector Icons : http://www.onlinewebfonts.com/icon </metadata>
<g><g transform="translate(0.000000,511.000000) scale(0.100000,-0.100000)"><path d="M1321.9,3420.7L100,2198.8L1314.6,989.1C1983.1,323,2539-223,2548.8-227.9c9.8-2.5,176.3,154.3,372.2,350.2l355.1,355.1l-599.9,600l-600,600h3031.6h3029.1v514.2v514.2H5112.6c-1662.7,0-3024.2,7.3-3024.2,17.1c0,12.2,264.5,284,587.7,607.3l587.7,587.7l-362.4,362.4l-360,360L1321.9,3420.7z"/><path d="M7083.9,97.8l-355.1-355.1l600-600l599.9-600H4897.2H1868v-514.2v-514.2h3024.2c1662.7,0,3024.2-7.3,3024.2-19.6c0-9.8-264.5-281.6-587.7-604.8l-587.7-587.7l360-360l362.4-362.4l1217,1217.1L9900-1983.7l-1217.1,1217C8012-95.7,7458.6,452.8,7451.2,452.8S7279.8,293.7,7083.9,97.8z"/></g></g>
</svg>